<?xml version="1.0" standalone="no"?>
<!DOCTYPE svg PUBLIC "-//W3C//DTD SVG 20010904//EN"
 "http://www.w3.org/TR/2001/REC-SVG-20010904/DTD/svg10.dtd">
<svg version="1.0" xmlns="http://www.w3.org/2000/svg"
 width="315.000000pt" height="320.000000pt" viewBox="0 0 315.000000 320.000000"
 preserveAspectRatio="xMidYMid meet">
<g transform="translate(0.000000,320.000000) scale(0.100000,-0.100000)"
fill="#ffffff" stroke="none">
<path d="M1557 3007 c-15 -85 -27 -168 -27 -185 l0 -31 -112 79 c-62 43 -114
77 -117 75 -6 -7 121 -225 132 -225 60 0 -148 -44 -315 -66 -52 -7 -66 -24
-20 -24 15 0 85 -11 157 -25 71 -14 142 -25 159 -25 27 0 28 -1 14 -17 -21
-24 -137 -217 -133 -221 4 -5 138 81 186 119 l36 28 32 -187 c36 -204 43 -234
48 -187 2 17 10 66 18 110 8 44 22 117 29 163 8 46 16 86 19 89 3 3 54 -29
113 -71 60 -41 110 -74 112 -72 1 2 -10 24 -25 49 -98 160 -114 189 -111 191
6 5 313 56 336 56 12 0 22 5 22 10 0 6 -10 10 -23 10 -12 0 -76 11 -142 25
-66 13 -137 26 -158 27 -20 2 -37 7 -37 12 0 5 20 41 44 80 52 85 79 136 73
142 -2 2 -48 -25 -102 -61 -68 -45 -101 -61 -106 -53 -8 13 -29 120 -51 256
-7 45 -15 82 -18 82 -4 0 -19 -69 -33 -153z m43 -44 c0 -26 30 -205 36 -212 4
-5 108 71 153 113 43 39 39 33 -68 -128 -18 -26 -31 -49 -29 -50 4 -3 241 -35
283 -39 17 -1 -28 -10 -100 -20 -71 -10 -140 -21 -152 -24 -27 -6 -30 -25 -7
-44 8 -7 24 -29 34 -48 10 -20 34 -54 54 -76 19 -21 33 -41 31 -44 -3 -2 -14
6 -25 19 -11 13 -20 20 -20 17 0 -3 -10 4 -23 16 -18 17 -97 69 -128 85 -7 3
-39 -185 -39 -233 0 -22 -4 -34 -10 -30 -5 3 -10 20 -10 36 0 32 -31 231 -37
238 -2 3 -12 -5 -23 -17 -12 -12 -25 -22 -29 -22 -17 0 -120 -87 -113 -95 4
-5 2 -5 -5 -2 -6 4 -13 1 -16 -5 -2 -7 -7 -10 -11 -7 -3 3 11 26 32 50 21 24
50 65 65 92 16 26 33 47 39 47 8 0 9 3 2 10 -10 10 -194 40 -248 40 -19 0 -37
4 -40 9 -3 5 9 9 27 8 63 -1 257 36 257 49 0 7 -4 15 -9 19 -8 4 -44 55 -120
168 -12 17 -8 16 15 -5 49 -45 179 -139 181 -131 8 31 33 199 33 224 0 17 4
28 10 24 6 -3 10 -18 10 -32z"/>
<path d="M994 2554 c-253 -134 -435 -321 -564 -579 -103 -204 -147 -410 -137
-635 18 -410 208 -764 538 -1006 145 -107 322 -184 512 -224 115 -25 335 -27
461 -5 459 80 850 409 1004 845 58 167 67 225 66 450 0 189 -3 213 -27 304
-68 254 -173 441 -342 612 -134 135 -395 304 -395 256 0 -4 21 -18 48 -32 167
-88 372 -267 463 -405 100 -150 172 -314 205 -465 36 -165 29 -448 -15 -615
-43 -165 -106 -291 -217 -435 -223 -291 -506 -451 -882 -501 -159 -21 -354 4
-542 68 -250 85 -473 258 -629 488 -98 143 -162 294 -197 460 -25 122 -30 347
-9 461 72 405 290 716 643 919 45 27 85 52 88 57 14 22 -7 16 -72 -18z"/>
<path d="M1035 2482 c-126 -66 -216 -131 -315 -231 -110 -110 -187 -226 -250
-374 -50 -119 -90 -277 -90 -358 0 -65 14 -35 34 71 23 124 77 286 127 380
112 209 308 394 540 510 43 22 79 42 79 45 0 15 -45 -1 -125 -43z"/>
<path d="M1184 2516 c1 -8 5 -18 8 -22 4 -3 5 1 4 10 -1 8 -5 18 -8 22 -4 3
-5 -1 -4 -10z"/>
<path d="M2020 2522 c0 -5 30 -22 68 -38 95 -43 229 -134 316 -215 129 -120
230 -271 291 -434 31 -80 75 -265 75 -312 0 -17 5 -35 11 -39 20 -12 3 162
-24 251 -45 147 -84 234 -153 337 -122 185 -297 336 -489 423 -79 36 -95 41
-95 27z"/>
<path d="M1106 2424 c-14 -26 -25 -48 -24 -49 2 -1 31 -6 66 -12 l62 -10 0 38
c0 21 3 44 6 53 4 10 0 15 -13 14 -10 0 -30 2 -44 6 -24 7 -29 3 -53 -40z m75
16 c5 0 9 -13 9 -30 0 -31 -19 -40 -48 -21 -19 11 -5 64 15 57 8 -3 19 -6 24
-6z"/>
<path d="M1998 2458 c-34 -9 -36 -12 -27 -35 5 -13 9 -35 9 -47 0 -23 2 -23
53 -14 28 5 53 11 55 12 5 6 -38 96 -45 95 -4 -1 -25 -5 -45 -11z m46 -37 c15
-27 14 -29 -7 -35 -33 -9 -34 -8 -41 21 -5 17 -3 29 6 34 21 14 27 11 42 -20z"/>
<path d="M1816 2332 c-3 -5 1 -9 9 -9 8 0 12 4 9 9 -3 4 -7 8 -9 8 -2 0 -6 -4
-9 -8z"/>
<path d="M890 2305 c0 -18 -5 -25 -20 -25 -26 0 -26 -16 1 -23 12 -3 20 -13
19 -24 -4 -33 0 -37 16 -17 11 13 17 15 20 7 6 -15 34 -18 34 -4 0 18 -31 40
-48 35 -9 -2 -7 1 6 7 12 7 22 17 22 23 0 6 -5 5 -12 -2 -7 -7 -17 -12 -22
-12 -6 0 -2 7 8 15 22 17 36 11 36 -16 0 -12 7 -19 20 -19 11 0 20 7 20 15 0
8 -7 15 -15 15 -10 0 -15 10 -15 26 0 23 -2 25 -16 13 -12 -10 -20 -10 -35 -1
-17 11 -19 9 -19 -13z"/>
<path d="M2218 2305 c3 -17 -1 -27 -12 -31 -22 -8 -20 -21 4 -27 12 -3 20 -14
20 -26 0 -18 3 -20 19 -9 15 9 23 9 37 -3 16 -13 17 -12 10 14 -6 24 -3 30 14
34 11 3 20 9 20 14 0 8 -6 9 -37 9 -4 0 -8 -8 -8 -17 0 -21 -32 -30 -49 -13
-8 8 -6 15 8 25 10 8 23 12 27 9 10 -6 33 35 25 43 -3 4 -14 -1 -25 -11 -16
-15 -19 -15 -31 -1 -18 22 -28 18 -22 -10z"/>
<path d="M609 2303 c-13 -16 -12 -17 4 -4 9 7 17 15 17 17 0 8 -8 3 -21 -13z"/>
<path d="M1149 2285 c-151 -76 -295 -201 -388 -338 -77 -113 -146 -308 -158
-444 -7 -90 11 -101 21 -12 9 81 47 207 94 316 35 82 102 181 176 262 43 47
179 147 246 181 69 36 96 55 84 63 -5 3 -39 -10 -75 -28z"/>
<path d="M1960 2301 c0 -6 28 -25 63 -42 98 -50 166 -100 251 -186 154 -155
240 -333 267 -551 7 -56 17 -102 21 -102 18 0 7 141 -18 241 -48 191 -148 345
-324 496 -101 88 -260 175 -260 144z"/>
<path d="M2363 2255 c0 -8 4 -12 9 -9 5 3 6 10 3 15 -9 13 -12 11 -12 -6z"/>
<path d="M704 2113 c-4 -10 -6 -21 -6 -25 3 -11 -16 -10 -39 2 -23 13 -25 3
-2 -22 13 -14 14 -21 5 -30 -18 -18 -14 -30 7 -23 13 4 23 0 29 -11 6 -11 11
-13 16 -5 4 6 16 11 28 11 18 0 19 2 7 16 -11 14 -11 18 4 29 23 16 22 25 -3
25 -15 0 -20 7 -20 25 0 29 -14 33 -26 8z m20 -74 c-21 -23 -32 -16 -13 7 13
16 12 16 -8 5 -27 -14 -29 -9 -7 14 13 12 19 13 30 4 12 -10 12 -15 -2 -30z"/>
<path d="M2439 2117 c-1 -9 -2 -22 -3 -27 -1 -6 13 -19 29 -30 23 -16 26 -20
11 -20 -10 0 -27 9 -37 21 -14 16 -22 18 -36 10 -17 -10 -16 -11 5 -17 12 -4
22 -14 22 -25 0 -22 16 -34 25 -19 4 7 19 8 36 5 30 -7 37 3 17 23 -9 9 -8 16
5 30 24 26 21 35 -8 28 -17 -4 -30 0 -45 16 -17 19 -20 19 -21 5z m51 -47 c0
-5 -5 -10 -11 -10 -5 0 -7 5 -4 10 3 6 8 10 11 10 2 0 4 -4 4 -10z"/>
<path d="M1015 2101 c-3 -5 -2 -12 3 -15 5 -3 9 1 9 9 0 17 -3 19 -12 6z"/>
<path d="M1800 2052 c-36 -5 -167 -69 -190 -92 -20 -20 -20 -20 -41 1 -11 11
-54 37 -95 56 -71 34 -77 35 -172 31 -91 -3 -104 -6 -177 -42 -56 -27 -98 -58
-144 -105 -129 -130 -177 -256 -169 -439 6 -109 24 -170 75 -252 40 -64 406
-430 550 -550 54 -45 108 -90 121 -101 12 -10 25 -19 30 -19 15 0 184 148 357
313 236 225 305 297 345 363 122 202 100 457 -58 653 -74 92 -151 144 -252
169 -49 13 -140 20 -180 14z m-442 -56 c7 -19 31 -57 54 -85 44 -54 82 -67
108 -36 29 35 -21 81 -69 63 -13 -5 -25 -7 -26 -6 -1 2 -13 25 -28 51 -26 48
-26 48 -4 42 34 -11 150 -75 174 -97 l22 -21 39 32 c41 32 163 94 170 86 7 -6
-47 -95 -58 -95 -5 0 -12 5 -15 10 -17 28 -75 -7 -75 -45 0 -23 17 -35 49 -35
23 0 94 75 120 128 20 39 24 42 62 42 33 0 40 -3 37 -17 -2 -10 -15 -24 -30
-31 -50 -23 -45 -82 7 -82 31 0 50 26 50 69 0 30 4 37 24 39 23 4 143 -50 170
-76 12 -11 8 -12 -25 -6 -75 15 -114 6 -114 -28 0 -24 36 -68 56 -68 26 0 24
19 -3 32 -15 7 -29 21 -31 31 -4 19 29 22 99 11 l37 -6 -19 -42 c-30 -65 -25
-94 16 -112 19 -7 45 -14 58 -14 42 0 69 -60 41 -92 -20 -21 -11 -38 16 -31
21 6 24 17 20 73 -3 54 -14 64 -77 75 -58 11 -58 11 -57 45 1 19 7 48 13 63
l11 28 23 -28 c80 -99 100 -136 118 -222 57 -268 -4 -404 -312 -691 l-116
-110 -17 44 c-27 70 -6 91 86 87 40 -2 49 2 64 23 10 16 14 35 10 51 -7 27
-26 34 -26 10 0 -15 -25 -21 -33 -7 -3 4 3 17 13 30 16 19 28 22 87 22 39 0
73 3 76 7 4 3 1 16 -7 28 -8 12 -16 32 -18 46 -3 21 1 24 32 26 19 1 41 2 47
2 7 1 20 13 29 27 16 24 16 27 -4 63 -32 57 -28 76 29 136 l50 53 -34 34 c-19
19 -40 52 -47 73 -11 34 -11 40 5 52 23 16 11 31 -13 17 -27 -17 -26 -60 2
-109 15 -24 34 -49 44 -54 15 -9 12 -14 -25 -46 -59 -51 -70 -90 -42 -155 12
-28 19 -54 15 -57 -4 -4 -22 -6 -41 -5 -68 5 -92 -30 -62 -88 l13 -25 -59 3
c-66 4 -99 -8 -115 -42 -19 -42 8 -73 57 -66 12 1 13 -1 3 -13 -9 -10 -25 -13
-57 -9 -55 6 -99 -11 -114 -44 -9 -21 -7 -34 10 -74 24 -56 23 -58 -48 -124
l-51 -47 -41 25 c-48 31 -52 31 -93 10 -29 -15 -33 -15 -70 6 l-39 22 -41 -28
c-42 -29 -36 -48 7 -20 34 22 55 20 86 -10 l26 -25 38 25 c31 22 40 24 57 13
11 -6 29 -17 39 -23 17 -10 15 -13 -24 -41 -23 -17 -57 -45 -76 -62 l-33 -30
-118 99 c-65 55 -127 111 -138 124 -19 25 -19 26 2 86 l21 61 -33 30 c-27 25
-42 30 -75 29 -64 -3 -77 -1 -77 10 0 6 11 10 24 10 52 0 57 52 9 90 -20 15
-41 20 -89 20 -67 0 -73 4 -49 36 19 25 19 30 -5 54 -13 13 -33 20 -60 20 -45
0 -51 15 -25 60 8 14 14 41 15 62 0 31 -7 42 -49 81 l-50 44 33 32 c42 41 63
99 47 130 -14 26 -28 27 -54 4 -19 -17 -19 -17 -14 2 3 11 9 32 13 48 5 24 11
27 45 27 48 0 87 17 95 42 3 10 -2 41 -11 69 -9 28 -15 52 -13 54 2 2 31 7 66
11 52 6 62 4 62 -9 0 -9 -12 -25 -27 -36 -14 -12 -23 -24 -19 -28 9 -10 36 8
60 40 16 22 17 28 6 43 -11 13 -28 15 -82 12 l-67 -4 42 27 c23 14 68 35 99
47 l58 22 6 -25 c3 -13 3 -28 0 -34 -3 -5 -2 -21 4 -35 7 -20 17 -26 39 -26
15 0 34 7 41 15 18 21 -2 62 -35 75 -44 17 -28 38 30 39 26 1 33 -4 43 -33z
m568 -42 c-4 -29 -46 -41 -46 -13 0 8 10 14 47 28 1 1 0 -6 -1 -15z m-630 -5
c10 -17 -13 -36 -27 -22 -12 12 -4 33 11 33 5 0 12 -5 16 -11z m204 -44 c0
-15 -43 -12 -48 3 -3 10 4 13 22 10 15 -2 26 -7 26 -13z m230 7 c0 -11 -37
-32 -44 -25 -15 15 -4 33 19 33 14 0 25 -3 25 -8z m-702 -126 c-2 -17 -12 -22
-48 -26 -55 -6 -72 -16 -88 -53 -18 -42 -15 -85 7 -97 28 -14 33 -13 26 9 -3
12 0 21 10 25 12 4 15 -2 15 -30 0 -26 -9 -44 -40 -78 -47 -51 -50 -68 -14
-87 37 -19 74 -66 74 -93 0 -13 -9 -33 -20 -46 -24 -28 -26 -67 -4 -91 11 -12
25 -16 53 -12 42 6 62 -15 35 -37 -19 -17 -18 -44 4 -63 15 -13 25 -15 53 -7
46 13 49 13 87 -10 29 -18 31 -22 20 -40 -16 -25 -25 -25 -33 0 -8 24 -21 26
-29 4 -3 -9 3 -31 15 -50 21 -35 28 -37 105 -34 59 2 70 -16 55 -85 -7 -30
-16 -55 -20 -55 -17 0 -370 369 -389 406 -11 22 -30 72 -42 113 -19 62 -22 89
-18 179 5 106 36 222 59 222 5 0 9 4 9 9 0 5 19 37 42 71 l43 61 18 -42 c10
-24 17 -52 15 -63z"/>
<path d="M1255 1847 c-96 -32 -168 -98 -212 -193 -22 -49 -24 -65 -21 -152 3
-87 7 -104 37 -165 35 -69 60 -97 294 -318 l78 -74 -16 -45 c-8 -24 -23 -52
-32 -62 -14 -16 -14 -20 1 -43 9 -14 24 -25 34 -25 39 0 56 48 28 79 -8 10
-12 30 -9 52 l5 36 71 -68 c40 -38 74 -69 77 -69 3 0 37 31 75 69 l70 70 6
-32 c3 -18 -1 -44 -9 -60 -28 -59 3 -96 53 -63 30 20 32 43 4 72 -11 12 -24
38 -29 58 l-8 35 163 158 c127 124 170 173 201 228 39 69 39 71 39 180 0 94
-3 117 -23 156 -32 66 -97 128 -170 162 -58 27 -70 29 -138 24 -83 -6 -147
-33 -202 -84 l-35 -33 -38 35 c-21 19 -57 44 -79 55 -53 27 -160 35 -215 17z
m195 -43 c30 -14 74 -46 97 -70 l41 -45 45 45 c57 56 115 86 182 93 122 13
238 -60 290 -181 24 -56 27 -74 24 -147 -6 -127 -33 -175 -188 -329 -171 -170
-341 -330 -351 -330 -7 0 -320 290 -427 397 -23 23 -56 70 -74 105 -28 54 -33
76 -37 154 -4 77 -1 98 17 138 73 166 235 238 381 170z m-14 -993 c-11 -18
-36 -13 -36 7 0 10 3 22 7 26 10 10 37 -20 29 -33z m343 26 c12 -15 5 -27 -16
-27 -7 0 -13 9 -13 20 0 23 13 26 29 7z"/>
<path d="M1250 1706 c0 -32 -34 -72 -67 -81 l-28 -7 35 -12 c25 -9 41 -23 54
-50 l18 -37 17 33 c9 18 31 40 49 49 l32 17 -30 12 c-36 15 -60 46 -60 77 0
13 -4 23 -10 23 -5 0 -10 -11 -10 -24z m35 -105 c-12 -10 -15 -11 -10 -2 6 10
4 12 -4 7 -7 -5 -10 -15 -6 -24 3 -9 -4 -5 -17 8 -22 24 -23 25 -5 47 l19 21
20 -20 c19 -19 19 -21 3 -37z"/>
<path d="M1250 1625 c-11 -13 -10 -14 4 -9 9 3 16 10 16 15 0 13 -6 11 -20 -6z"/>
<path d="M1906 1703 c-8 -36 -29 -57 -71 -73 l-30 -12 35 -11 c24 -8 41 -24
57 -52 l22 -40 11 32 c12 33 47 63 77 63 11 1 4 8 -17 18 -24 11 -42 31 -56
61 l-22 45 -6 -31z m38 -64 c16 -20 17 -23 2 -37 -11 -12 -16 -13 -16 -4 0 7
-4 11 -10 7 -5 -3 -7 -13 -4 -23 5 -16 5 -16 -6 0 -6 10 -18 22 -28 28 -16 11
-15 11 2 6 13 -5 17 -2 13 8 -5 13 10 36 23 36 3 0 14 -10 24 -21z"/>
<path d="M1910 1631 c0 -9 30 -24 36 -18 2 1 -6 8 -16 15 -11 7 -20 8 -20 3z"/>
<path d="M1566 1548 c-20 -58 -85 -127 -146 -155 -22 -10 -40 -20 -40 -23 0
-3 20 -13 45 -23 53 -22 109 -81 140 -148 l22 -49 27 54 c31 63 113 142 160
154 l31 8 -37 18 c-78 37 -168 139 -168 190 0 34 -17 21 -34 -26z m38 -42 c3
-13 23 -39 44 -58 42 -38 53 -81 24 -97 -13 -8 -14 -10 -2 -10 8 0 24 7 35 15
20 15 20 15 1 30 -23 16 -14 19 15 4 26 -15 24 -23 -13 -45 -18 -10 -37 -23
-41 -29 -6 -8 -10 -8 -13 1 -3 7 -14 2 -30 -14 -22 -22 -25 -51 -3 -37 5 3 7
9 4 14 -3 4 2 13 10 20 24 20 18 2 -17 -52 l-32 -49 -19 40 c-11 23 -24 41
-29 41 -6 0 -8 7 -4 15 3 8 0 14 -6 12 -17 -4 -17 32 0 43 10 5 12 10 5 10 -6
0 -14 -4 -17 -8 -3 -5 -15 -8 -28 -6 -32 3 -31 3 -48 14 -13 9 -11 13 9 29 23
17 27 18 50 4 24 -14 24 -14 7 1 -20 16 -20 16 65 111 6 6 9 6 9 0 0 -6 -16
-28 -35 -49 -19 -22 -35 -42 -35 -45 0 -3 19 14 41 38 28 30 38 49 34 62 -4
11 -2 19 3 19 6 0 13 -11 16 -24z m-99 -176 c3 -5 1 -10 -4 -10 -6 0 -11 5
-11 10 0 6 2 10 4 10 3 0 8 -4 11 -10z"/>
<path d="M1587 1466 c-4 -11 -1 -13 11 -9 15 6 16 5 2 -12 -14 -17 -14 -17 6
-5 18 11 20 16 9 27 -17 17 -22 16 -28 -1z"/>
<path d="M1470 1386 c0 -3 9 -10 20 -16 11 -6 20 -8 20 -6 0 3 -9 10 -20 16
-11 6 -20 8 -20 6z"/>
<path d="M1441 1377 c2 -1 13 -9 24 -17 19 -14 19 -14 6 3 -7 9 -18 17 -24 17
-6 0 -8 -1 -6 -3z"/>
<path d="M1600 1369 c0 -5 5 -7 10 -4 6 3 10 8 10 11 0 2 -4 4 -10 4 -5 0 -10
-5 -10 -11z"/>
<path d="M1580 1251 c0 -6 4 -13 10 -16 6 -3 7 1 4 9 -7 18 -14 21 -14 7z"/>
<path d="M1446 1453 c-6 -14 -5 -15 5 -6 7 7 10 15 7 18 -3 3 -9 -2 -12 -12z"/>
<path d="M1605 909 c-3 -4 2 -6 10 -5 21 3 28 13 10 13 -9 0 -18 -4 -20 -8z"/>
<path d="M2570 1883 c0 -12 -8 -24 -17 -26 -16 -4 -16 -5 1 -6 13 -1 17 -7 13
-19 -3 -15 1 -19 24 -18 20 1 28 5 24 15 -3 7 0 20 6 27 9 11 8 14 -6 14 -10
0 -24 8 -31 18 -12 16 -13 15 -14 -5z"/>
<path d="M550 1868 c0 -5 7 -11 15 -15 14 -5 14 -7 0 -23 -14 -15 -13 -17 14
-17 20 0 28 4 24 14 -3 7 2 13 11 13 9 0 16 5 16 10 0 6 -7 10 -15 10 -8 0
-15 4 -15 9 0 5 -11 9 -25 9 -14 0 -25 -5 -25 -10z"/>
<path d="M511 1688 c-1 -10 -8 -18 -16 -18 -8 0 -15 -4 -15 -9 0 -5 7 -11 15
-15 8 -3 15 -13 15 -23 0 -12 3 -14 11 -6 6 6 17 9 24 7 8 -3 12 5 11 25 -1
33 -10 39 -22 19 -6 -9 -10 -5 -15 12 -4 16 -7 19 -8 8z"/>
<path d="M2641 1683 c0 -7 -9 -13 -18 -13 -13 0 -15 -2 -5 -8 8 -5 10 -16 6
-27 -5 -13 -4 -16 4 -11 7 4 12 2 12 -3 0 -6 7 -11 16 -11 10 0 14 6 11 15 -4
8 -2 17 3 20 15 10 12 25 -4 19 -8 -3 -16 2 -19 13 -3 10 -5 12 -6 6z"/>
<path d="M477 1487 c-4 -10 -7 -27 -7 -38 0 -23 -4 -23 -36 -3 -13 9 -27 14
-30 11 -6 -5 24 -57 39 -68 5 -3 8 -9 8 -13 -3 -17 0 -20 8 -7 7 11 3 20 -11
33 -15 13 -17 18 -7 18 8 0 21 -6 28 -12 10 -11 11 -10 6 5 -4 10 -2 17 4 17
6 0 11 -4 11 -9 0 -6 9 -8 20 -6 14 3 20 -2 20 -14 0 -9 4 -21 8 -26 5 -6 -2
-21 -15 -34 -16 -17 -23 -20 -23 -10 0 8 5 20 11 26 8 8 8 16 0 30 -11 16 -11
15 -5 -6 4 -16 3 -21 -5 -17 -11 7 -15 -10 -12 -44 1 -11 -3 -10 -14 4 -18 24
-19 16 -3 -35 13 -44 28 -52 28 -15 0 32 12 39 45 26 24 -9 26 -8 20 7 -15 36
-10 48 18 51 38 5 34 18 -8 26 -35 7 -35 7 -19 32 21 31 15 38 -21 24 -15 -6
-29 -9 -30 -8 -1 2 -6 19 -11 38 -8 28 -11 31 -17 17z"/>
<path d="M2676 1460 l-6 -31 -31 17 c-30 15 -32 15 -24 -2 18 -42 11 -59 -23
-62 -39 -4 -33 -22 9 -22 31 0 40 -25 17 -48 -9 -9 -8 -12 4 -12 9 0 20 5 23
10 12 19 23 10 38 -32 l14 -43 8 37 c5 28 3 41 -9 53 -19 20 -20 32 -3 38 10
4 10 6 0 6 -7 1 -13 8 -13 16 0 17 16 20 23 5 3 -6 4 -5 3 2 -2 7 -11 12 -20
12 -19 -2 -22 12 -3 18 17 6 61 -18 48 -26 -6 -4 -11 -13 -10 -19 0 -9 2 -9 6
1 2 6 9 12 14 12 6 0 7 -5 3 -12 -5 -7 -3 -8 6 -3 9 5 11 4 6 -3 -4 -7 -17
-12 -29 -13 -21 0 -21 -1 -2 -8 19 -8 18 -9 -5 -13 -23 -3 -22 -5 17 -26 54
-28 62 -28 34 2 -25 27 -21 46 9 46 10 0 22 5 25 10 3 6 -2 10 -12 10 -10 0
-24 4 -32 9 -12 8 -12 13 3 37 18 26 18 27 0 22 -11 -3 -26 -9 -36 -13 -12 -5
-18 1 -23 24 -8 39 -21 40 -29 1z m-7 -98 c-6 -2 -4 -11 3 -20 12 -13 11 -14
-8 -2 -12 7 -19 21 -18 34 1 11 3 26 4 31 0 6 7 -1 15 -15 8 -15 10 -26 4 -28z"/>
<path d="M375 1381 c-17 -7 -16 -9 13 -15 35 -8 43 -34 17 -56 -22 -18 -12
-23 19 -9 29 13 32 26 14 64 -11 26 -28 30 -63 16z"/>
<path d="M2541 1247 c-21 -146 -49 -219 -144 -381 -56 -95 -191 -234 -285
-294 -86 -55 -191 -100 -299 -128 -71 -18 -95 -34 -52 -34 66 0 243 66 354
133 81 48 210 173 276 267 96 135 165 305 175 433 9 106 -11 109 -25 4z"/>
<path d="M605 1263 c19 -140 84 -314 161 -430 55 -82 198 -228 270 -273 114
-72 307 -150 370 -150 37 0 28 17 -13 25 -54 10 -245 88 -311 127 -31 18 -106
83 -167 143 -93 92 -120 126 -164 208 -59 108 -96 214 -113 324 -8 50 -16 73
-25 73 -11 0 -13 -11 -8 -47z"/>
<path d="M386 1252 c-9 -16 18 -163 50 -264 29 -91 116 -257 177 -337 181
-237 461 -410 750 -464 44 -8 80 -11 83 -6 6 11 5 11 -121 39 -146 33 -267 85
-425 184 -69 44 -241 222 -299 311 -91 140 -144 267 -185 450 -12 57 -25 94
-30 87z"/>
<path d="M2767 1243 c-4 -3 -7 -23 -7 -44 0 -78 -47 -234 -104 -346 -127 -252
-326 -441 -588 -560 -94 -42 -265 -93 -314 -93 -13 0 -24 -4 -24 -10 0 -35
219 20 376 95 137 65 206 111 308 206 122 115 230 260 284 384 76 176 122 422
69 368z"/>
<path d="M516 1066 c4 -18 1 -27 -15 -36 -26 -13 -18 -30 14 -30 18 0 24 -6
27 -27 l4 -28 14 28 c7 15 21 27 29 26 31 -3 34 1 17 20 -14 15 -15 24 -6 40
12 24 8 26 -21 10 -16 -8 -25 -7 -38 5 -25 22 -32 20 -25 -8z m64 -47 c0 -6
-4 -7 -10 -4 -5 3 -10 1 -10 -6 0 -9 -3 -9 -14 1 -22 17 -9 42 15 29 10 -5 19
-14 19 -20z"/>
<path d="M2575 1059 c4 -13 0 -27 -11 -40 -17 -18 -16 -19 14 -19 22 0 32 -6
37 -20 9 -30 27 -24 23 7 -2 19 -10 29 -28 34 -14 4 -19 7 -12 8 7 1 11 5 8 9
-2 4 5 9 17 9 14 2 17 -1 9 -6 -18 -11 20 -43 42 -35 16 6 15 8 -3 25 -11 11
-18 26 -15 34 7 17 -7 20 -23 4 -8 -8 -17 -8 -31 0 -29 16 -34 14 -27 -10z"/>
<path d="M2136 978 c3 -5 10 -6 15 -3 13 9 11 12 -6 12 -8 0 -12 -4 -9 -9z"/>
<path d="M622 867 c-10 -11 -9 -17 3 -27 24 -20 45 4 24 26 -14 13 -17 13 -27
1z"/>
<path d="M2066 840 c-12 -27 -26 -42 -49 -50 l-32 -11 38 -16 c26 -11 39 -23
43 -42 11 -43 16 -45 30 -12 7 17 27 39 43 49 l31 19 -27 14 c-14 8 -34 31
-43 51 l-16 37 -18 -39z m40 -42 c10 -12 13 -18 7 -14 -7 4 -13 3 -13 -3 0 -5
6 -12 13 -14 7 -4 6 -6 -5 -6 -9 -1 -19 -7 -22 -13 -2 -7 -4 -4 -3 7 2 11 6
26 10 33 5 6 4 12 -2 12 -5 0 -13 -9 -16 -21 -5 -15 -10 -18 -18 -10 -7 7 -5
16 8 31 22 24 18 24 41 -2z"/>
<path d="M1070 837 c-8 -17 -28 -38 -43 -45 l-28 -14 33 -16 c22 -12 37 -28
44 -51 l11 -35 19 39 c11 23 29 42 46 49 36 13 35 19 -3 33 -19 8 -34 23 -42
42 -6 17 -14 31 -17 31 -3 0 -12 -15 -20 -33z m54 -54 c3 -6 -7 -19 -22 -29
-15 -9 -24 -13 -20 -9 4 4 0 13 -8 20 -13 9 -14 16 -5 33 10 19 14 20 31 10
11 -7 22 -18 24 -25z"/>
<path d="M1081 797 c2 -1 13 -9 24 -17 19 -14 19 -14 6 3 -7 9 -18 17 -24 17
-6 0 -8 -1 -6 -3z"/>
<path d="M2520 856 c0 -10 9 -16 21 -16 24 0 21 23 -4 28 -10 2 -17 -3 -17
-12z"/>
<path d="M1973 815 c0 -8 4 -12 9 -9 5 3 6 10 3 15 -9 13 -12 11 -12 -6z"/>
<path d="M725 770 c-5 -14 -15 -20 -37 -20 -30 0 -30 -1 -14 -19 15 -16 15
-19 1 -31 -22 -18 -19 -26 13 -25 20 0 26 -4 24 -17 -4 -24 15 -23 28 2 6 11
16 20 23 20 8 0 13 13 13 34 0 24 -4 32 -13 29 -8 -3 -13 3 -13 15 0 29 -17
37 -25 12z m20 -60 c2 -21 -15 -32 -32 -22 -11 8 -14 44 -2 36 4 -2 11 1 14 7
9 13 18 4 20 -21z"/>
<path d="M2421 770 c-1 -15 4 -31 11 -38 9 -9 9 -12 0 -12 -7 0 -12 5 -12 10
0 6 -10 10 -22 10 -23 -1 -23 -1 -3 -16 14 -11 16 -18 8 -21 -19 -7 -16 -34 4
-31 10 2 22 -7 30 -22 l13 -25 6 23 c4 15 14 22 30 22 28 0 31 12 9 34 -9 9
-11 17 -5 21 18 11 10 25 -14 25 -13 0 -30 10 -39 23 l-16 22 0 -25z m43 -55
c-4 -9 0 -15 7 -15 11 0 11 -3 -1 -10 -19 -12 -21 -12 -40 0 -13 8 -12 11 5
24 26 20 36 20 29 1z"/>
<path d="M2440 700 c0 -5 5 -10 11 -10 5 0 7 5 4 10 -3 6 -8 10 -11 10 -2 0
-4 -4 -4 -10z"/>
<path d="M1880 766 c0 -2 8 -10 18 -17 15 -13 16 -12 3 4 -13 16 -21 21 -21
13z"/>
<path d="M2766 732 c-3 -5 1 -9 9 -9 8 0 12 4 9 9 -3 4 -7 8 -9 8 -2 0 -6 -4
-9 -8z"/>
<path d="M1823 655 c0 -8 4 -12 9 -9 5 3 6 10 3 15 -9 13 -12 11 -12 -6z"/>
<path d="M1046 633 c-6 -14 -5 -15 5 -6 7 7 10 15 7 18 -3 3 -9 -2 -12 -12z"/>
<path d="M1729 593 c-13 -16 -12 -17 4 -4 16 13 21 21 13 21 -2 0 -10 -8 -17
-17z"/>
<path d="M516 573 c-6 -14 -5 -15 5 -6 7 7 10 15 7 18 -3 3 -9 -2 -12 -12z"/>
<path d="M890 541 c0 -6 5 -13 11 -17 8 -4 8 -9 0 -17 -17 -17 -13 -22 19 -23
25 -1 29 2 28 22 -2 16 -9 24 -20 24 -10 0 -18 5 -18 10 0 6 -4 10 -10 10 -5
0 -10 -4 -10 -9z"/>
<path d="M2270 541 c0 -7 -7 -10 -18 -7 -15 5 -19 1 -19 -22 0 -25 4 -29 27
-28 23 1 27 5 25 29 -2 27 -15 52 -15 28z"/>
<path d="M1260 530 c-9 -6 -10 -10 -3 -10 6 0 15 5 18 10 8 12 4 12 -15 0z"/>
<path d="M1991 432 c-1 -29 -3 -32 -26 -26 -27 7 -35 -10 -9 -20 12 -4 14 -13
10 -31 -6 -23 -4 -25 18 -19 19 4 26 1 31 -15 9 -29 25 -26 25 4 0 18 5 25 20
25 18 0 30 20 13 20 -24 1 -35 18 -24 39 13 23 9 26 -19 11 -15 -8 -20 -5 -28
18 l-10 27 -1 -33z m43 -58 c3 -8 -1 -14 -9 -14 -8 0 -15 6 -15 13 0 8 -4 7
-10 -3 -8 -13 -10 -13 -10 1 0 9 3 18 6 22 9 9 32 -3 38 -19z"/>
<path d="M1172 424 c-7 -13 -13 -14 -31 -5 -17 9 -21 9 -21 -2 0 -7 6 -19 12
-25 10 -10 8 -14 -10 -18 -27 -8 -29 -24 -3 -24 21 0 33 -22 25 -45 -4 -8 -2
-15 4 -15 5 0 12 10 15 21 5 17 11 20 31 15 28 -7 33 2 14 23 -11 10 -10 14 5
22 23 13 22 25 -3 32 -13 3 -18 10 -14 21 8 21 -12 21 -24 0z m22 -46 c-3 -5
-12 -4 -20 3 -19 16 -18 18 6 12 11 -3 17 -9 14 -15z m-14 -13 c14 -16 10 -18
-14 -9 -9 3 -16 10 -16 15 0 14 16 11 30 -6z"/>
<path d="M1573 359 c-12 -30 -12 -30 -42 -14 -34 17 -39 11 -16 -19 17 -23 12
-34 -23 -48 l-27 -11 34 -9 c34 -9 35 -14 15 -62 -7 -18 -5 -18 24 3 18 12 33
20 33 17 1 -3 3 -10 4 -16 1 -5 3 -19 4 -30 2 -31 18 -24 23 10 5 32 -7 50
-31 50 -17 1 -59 50 -42 50 5 0 13 9 16 20 4 11 11 18 16 15 5 -4 13 4 18 17
6 13 10 17 10 11 1 -7 6 -13 12 -13 6 0 8 9 4 23 -12 37 -20 38 -32 6z"/>
<path d="M1269 363 c-13 -16 -12 -17 4 -4 16 13 21 21 13 21 -2 0 -10 -8 -17
-17z"/>
<path d="M1643 343 c-12 -2 -27 -12 -35 -21 -8 -9 -8 -13 -1 -9 13 8 43 -18
43 -36 0 -7 -7 -21 -15 -31 -15 -20 -15 -20 -16 0 0 18 -1 18 -8 -1 -6 -16 -2
-24 22 -38 30 -19 49 -15 29 5 -21 21 -13 37 21 46 l32 9 -27 11 c-30 12 -34
23 -18 53 6 10 7 18 3 18 -4 -1 -18 -4 -30 -6z"/>
<path d="M1334 329 c-10 -17 23 -46 37 -32 7 7 9 19 6 27 -7 18 -33 21 -43 5z"/>
<path d="M1804 319 c-8 -14 11 -33 25 -25 16 10 13 36 -3 36 -8 0 -18 -5 -22
-11z"/>
<path d="M1603 285 c0 -8 9 -15 20 -15 11 0 18 1 16 3 -2 1 -11 8 -20 15 -13
9 -16 9 -16 -3z"/>
<path d="M1560 286 c0 -2 7 -7 16 -10 8 -3 12 -2 9 4 -6 10 -25 14 -25 6z"/>
<path d="M857 259 c7 -7 15 -10 18 -7 3 3 -2 9 -12 12 -14 6 -15 5 -6 -5z"/>
<path d="M1560 261 c0 -5 5 -13 10 -16 6 -3 10 -2 10 4 0 5 -4 13 -10 16 -5 3
-10 2 -10 -4z"/>
<path d="M970 206 c0 -2 8 -10 18 -17 15 -13 16 -12 3 4 -13 16 -21 21 -21 13z"/>
</g>
</svg>
