<?xml version="1.0" standalone="no"?>
<!DOCTYPE svg PUBLIC "-//W3C//DTD SVG 20010904//EN"
 "http://www.w3.org/TR/2001/REC-SVG-20010904/DTD/svg10.dtd">
<svg version="1.0" xmlns="http://www.w3.org/2000/svg"
 width="370.000000pt" height="370.000000pt" viewBox="0 0 370.000000 370.000000"
 preserveAspectRatio="xMidYMid meet">
<g transform="translate(0.000000,370.000000) scale(0.100000,-0.100000)"
fill="#ffffff" stroke="none">
<path d="M1790 3649 c0 -7 -16 -27 -36 -45 l-35 -34 35 -31 36 -31 0 -114 0
-114 -35 0 c-19 0 -35 -4 -35 -10 0 -5 16 -10 35 -10 l35 0 0 -50 c0 -38 4
-50 15 -50 11 0 15 12 15 50 l0 50 35 0 c19 0 35 5 35 10 0 6 -16 10 -35 10
l-35 0 0 119 0 119 30 25 c17 14 30 28 30 31 0 8 -73 86 -82 86 -4 0 -8 -5 -8
-11z m30 -44 c9 6 9 3 0 -15 -9 -17 -9 -24 -1 -30 9 -5 7 -11 -4 -20 -13 -11
-15 -10 -9 4 4 11 1 16 -11 16 -15 0 -15 3 -5 15 7 9 10 18 6 22 -3 3 -6 1 -6
-5 0 -7 -5 -12 -10 -12 -6 0 -5 8 2 20 8 12 15 15 19 8 4 -6 12 -7 19 -3z"/>
<path d="M1586 3474 l-39 -45 39 -40 c40 -41 54 -48 54 -25 0 8 14 26 30 39
17 14 30 29 30 34 -1 7 -67 83 -73 83 -1 -1 -19 -21 -41 -46z m73 -34 c-6 -4
-11 -11 -12 -16 -1 -5 -6 -9 -12 -9 -5 0 -16 -4 -22 -8 -10 -6 -11 -2 -3 17 7
19 6 26 -3 26 -8 0 -8 3 2 9 9 6 24 5 38 -2 15 -6 19 -13 12 -17z"/>
<path d="M1945 3477 l-40 -44 41 -41 41 -40 36 38 c21 20 37 40 37 42 0 3 -17
24 -38 47 l-38 42 -39 -44z m64 -46 c0 -14 -3 -20 -6 -13 -9 23 -23 12 -19
-15 4 -19 2 -23 -6 -15 -6 6 -12 23 -14 39 -3 24 1 28 21 29 21 2 25 -3 24
-25z"/>
<path d="M1774 2895 c-18 -18 -36 -25 -63 -25 -119 0 -395 -77 -511 -143 -295
-167 -522 -439 -619 -742 -33 -103 -60 -236 -63 -310 -1 -39 -6 -54 -25 -68
-28 -22 -30 -61 -4 -79 15 -10 22 -35 30 -108 39 -319 153 -569 357 -780 154
-158 305 -259 480 -318 127 -44 200 -61 299 -71 68 -7 91 -13 106 -30 25 -26
64 -27 81 -2 10 15 35 22 108 30 193 24 387 89 511 172 172 115 272 204 363
325 143 191 228 410 257 660 8 71 16 105 30 120 25 27 24 59 -3 81 -18 14 -23
30 -25 73 -8 185 -93 434 -210 612 -210 320 -579 549 -928 575 -67 4 -84 9
-103 29 -29 30 -37 30 -68 -1z m-6 -65 c16 -26 57 -26 76 1 14 21 18 21 98 10
46 -7 119 -21 163 -32 90 -22 245 -78 245 -88 0 -4 -65 -71 -144 -150 -125
-124 -148 -143 -169 -137 -17 4 -30 0 -42 -14 -17 -19 -31 -20 -195 -20 -146
0 -180 3 -190 15 -7 8 -27 15 -45 15 -19 0 -35 4 -37 9 -1 6 -63 71 -137 146
-105 106 -132 139 -120 146 27 17 224 78 299 93 152 30 182 31 198 6z m-565
-204 c-16 -68 -20 -75 -38 -69 -11 3 -47 11 -79 17 l-59 11 94 61 c52 33 95
60 97 58 2 -1 -5 -36 -15 -78z m185 -60 c167 -169 172 -181 90 -215 l-52 -21
-105 102 c-58 57 -108 104 -110 105 -7 5 21 173 28 173 4 0 71 -65 149 -144z
m992 116 c0 -16 16 -127 35 -248 40 -251 40 -254 19 -254 -19 0 -319 173 -352
203 l-22 21 147 151 c82 84 154 153 161 154 7 0 12 -11 12 -27z m118 -49 c123
-85 227 -185 307 -292 61 -83 151 -238 143 -246 -2 -3 -71 4 -154 16 -82 11
-180 22 -217 26 -59 5 -70 9 -80 30 -5 12 -16 23 -24 23 -8 0 -13 12 -13 33 0
17 -16 127 -35 242 -37 222 -38 235 -29 235 3 0 49 -30 102 -67z m-1362 -98
c44 -14 103 -51 93 -59 -2 -1 -45 -24 -95 -50 -50 -26 -119 -73 -152 -103 -65
-57 -175 -211 -213 -298 l-22 -49 -26 34 c-14 19 -37 45 -50 57 l-23 22 46 83
c60 111 89 152 171 249 112 131 155 149 271 114z m168 -129 l48 -44 -71 -36
c-174 -87 -276 -187 -348 -341 -23 -50 -44 -98 -47 -108 -7 -22 -17 -17 -76
37 l-43 39 33 66 c83 170 210 308 356 387 43 24 84 44 89 43 6 0 32 -20 59
-43z m683 -41 c4 -29 -157 -259 -183 -263 -16 -2 -37 21 -96 105 -99 141 -102
147 -95 167 6 15 27 16 189 14 175 -3 183 -4 185 -23z m-426 -70 c-2 -33 -5
-61 -6 -63 -4 -4 -104 71 -104 79 -1 9 83 48 99 46 12 -2 14 -15 11 -62z m646
-9 c68 -40 143 -84 168 -97 66 -35 62 -57 -28 -147 -40 -39 -75 -72 -79 -72
-3 0 -43 41 -88 90 l-83 91 -23 97 c-13 53 -24 100 -24 105 0 20 46 0 157 -67z
m-523 -68 c47 -70 86 -133 86 -140 0 -26 31 -59 53 -56 18 2 22 10 22 43 0 34
13 61 80 162 44 67 87 122 95 122 12 1 21 -21 34 -81 10 -46 20 -93 23 -105 4
-16 1 -23 -9 -23 -27 0 -51 -39 -56 -90 -2 -27 -6 -50 -8 -50 -2 0 -13 9 -24
20 -11 11 -26 20 -32 20 -23 0 -80 -41 -85 -61 -3 -10 -7 -19 -10 -19 -15 0
-90 75 -86 86 3 8 0 14 -6 14 -6 0 -52 35 -102 77 l-91 78 6 50 c3 27 6 58 6
68 0 10 4 17 9 15 5 -1 47 -60 95 -130z m-292 103 c2 -4 32 -30 69 -57 77 -58
198 -164 326 -288 l93 -89 -31 -19 c-27 -17 -59 -70 -59 -99 0 -6 78 -91 174
-188 184 -185 201 -211 172 -256 -35 -53 -56 -40 -247 156 -166 172 -178 181
-205 175 -62 -16 -112 -74 -100 -120 3 -11 91 -106 196 -210 110 -110 190
-198 190 -208 0 -24 -44 -68 -68 -68 -11 0 -98 80 -215 199 -108 109 -198 196
-201 193 -16 -15 9 -46 184 -223 105 -106 190 -200 190 -209 0 -29 -39 -70
-66 -70 -26 0 -30 3 -278 258 -96 98 -143 139 -150 132 -7 -7 23 -44 95 -118
156 -158 229 -241 229 -257 0 -24 -38 -55 -67 -55 -23 0 -64 36 -210 179 -99
99 -192 199 -206 223 -14 23 -55 124 -92 223 -83 222 -107 270 -158 317 l-39
37 16 43 c65 164 182 288 356 375 66 33 96 40 102 24z m1348 -217 c113 -15
207 -28 209 -30 4 -3 -157 -298 -215 -394 -22 -36 -45 -65 -52 -65 -7 0 -29
50 -51 115 -37 110 -122 327 -141 361 -10 19 5 39 30 39 8 0 107 -12 220 -26z
m-271 -418 c22 -44 57 -140 80 -212 40 -128 86 -219 116 -230 8 -4 15 -13 15
-22 0 -32 -71 -160 -125 -225 -67 -81 -123 -124 -232 -178 l-82 -40 -53 37
c-137 97 -226 158 -258 177 -30 19 -32 22 -15 26 36 6 69 38 80 77 8 28 17 40
33 42 31 5 62 49 62 89 0 26 5 35 24 43 42 16 69 60 62 102 -5 33 -4 38 13 38
11 0 31 14 46 32 22 26 26 39 21 67 -4 29 -1 40 21 63 21 22 26 37 25 69 -2
52 0 48 -107 169 -149 169 -147 165 -152 212 -4 34 0 49 16 70 l21 27 175
-176 c160 -160 179 -182 214 -257z m45 311 c137 -362 144 -383 126 -407 -12
-16 -25 -21 -50 -18 -37 3 -34 -1 -96 132 -28 62 -55 98 -122 168 l-86 89 73
73 c97 98 104 96 155 -37z m-1742 -177 c112 -190 120 -207 113 -230 -6 -19
-16 -20 -152 -20 -145 0 -146 0 -171 27 -24 27 -24 27 -13 112 14 100 33 187
63 284 l21 69 26 -49 c15 -26 66 -113 113 -193z m2228 131 c29 -100 60 -255
60 -299 0 -13 -10 -36 -22 -52 l-22 -30 -147 0 c-134 0 -148 2 -153 18 -4 12
32 85 105 213 62 107 118 209 126 228 8 18 16 31 19 28 3 -2 18 -50 34 -106z
m-2186 -79 c47 -43 61 -50 76 -42 10 6 23 10 29 10 12 0 91 -118 91 -137 0 -7
-10 -27 -22 -43 -12 -16 -19 -32 -16 -36 3 -3 14 8 24 25 10 17 21 31 24 31 6
0 40 -88 40 -102 0 -5 -20 -8 -45 -8 -38 0 -45 3 -45 20 0 16 -7 20 -35 20
-19 0 -35 3 -35 8 0 9 -162 294 -208 366 -48 75 -38 77 17 5 26 -36 74 -88
105 -117z m1221 66 c115 -107 235 -254 235 -290 0 -34 -16 -68 -32 -68 -15 0
-338 320 -348 345 -12 30 24 84 56 85 5 0 46 -33 89 -72z m24 -235 c82 -82
155 -161 160 -176 14 -36 -3 -76 -38 -89 -22 -8 -37 4 -160 128 -75 75 -151
154 -169 175 -32 37 -33 39 -18 67 36 70 59 59 225 -105z m-178 -258 c166
-167 179 -183 179 -216 0 -20 -6 -42 -13 -48 -36 -29 -54 -18 -232 154 -98 94
-184 183 -192 198 -13 27 -13 29 21 63 20 20 41 34 47 32 6 -2 92 -85 190
-183z m1202 120 c-5 -18 -4 -18 11 -6 14 12 16 12 10 -3 -3 -9 -12 -16 -19
-16 -16 0 -28 27 -15 35 5 3 7 13 4 23 -5 14 -4 15 5 2 6 -8 8 -24 4 -35z
m-2536 -9 c-9 -23 -22 -20 -35 8 -8 19 -8 26 1 29 18 7 41 -19 34 -37z m347
-11 c3 -9 -16 -53 -45 -103 -143 -247 -209 -363 -209 -368 0 -25 51 58 226
368 44 79 74 109 74 76 0 -6 39 -121 86 -255 85 -241 95 -291 56 -279 -9 3
-102 17 -207 31 -243 32 -230 29 -250 70 -25 55 -62 210 -75 321 -12 99 -12
100 11 127 l24 27 151 0 c128 0 153 -2 158 -15z m201 -57 c15 -40 43 -107 62
-150 l35 -76 -12 -102 c-13 -116 -24 -152 -42 -145 -7 3 -53 121 -101 261 -98
286 -98 284 -17 284 l48 0 27 -72z m1550 62 c6 -10 -40 -100 -51 -100 -6 0
-20 37 -29 78 -7 32 -7 32 34 32 22 0 43 -5 46 -10z m390 -15 c18 -19 25 -37
25 -63 0 -55 -25 -197 -50 -282 -40 -140 -35 -127 -48 -105 -6 11 -12 16 -12
11 0 -5 -45 34 -99 87 -55 54 -105 97 -111 97 -6 0 -21 -5 -33 -11 -18 -10
-24 -8 -46 17 -15 16 -35 54 -45 85 l-19 55 34 52 c19 29 41 50 49 49 8 -1 71
-95 140 -209 69 -113 126 -205 128 -203 7 6 -81 160 -200 353 -22 35 -37 70
-34 78 4 11 35 14 150 14 142 0 146 -1 171 -25z m-248 -325 l42 -41 -34 -74
c-84 -186 -195 -307 -370 -406 l-57 -32 -49 49 c-27 26 -49 51 -49 55 0 4 12
10 28 14 48 12 145 72 210 130 53 49 152 171 152 188 0 15 70 157 77 157 4 0
27 -18 50 -40z m-1444 -104 c76 -74 134 -136 130 -139 -34 -20 -119 -28 -172
-18 -32 6 -65 9 -73 6 -10 -4 -23 5 -37 24 -17 23 -19 34 -11 55 5 14 12 66
16 116 4 49 7 90 8 90 1 0 63 -61 139 -134z m1617 -73 c0 -12 -84 -159 -130
-228 -26 -38 -75 -100 -109 -136 -71 -78 -205 -184 -220 -174 -14 8 -104 135
-100 139 2 2 52 36 110 75 168 111 239 202 328 416 l13 30 54 -58 c30 -32 54
-60 54 -64z m-2225 -14 c39 -5 135 -18 214 -29 189 -25 184 -20 216 -224 14
-83 32 -195 41 -249 8 -55 13 -101 11 -104 -5 -5 -138 81 -192 124 -80 65
-203 197 -257 277 -52 79 -118 196 -118 211 0 7 2 6 85 -6z m1255 -100 c47
-33 86 -64 88 -69 2 -4 -4 -24 -12 -44 -23 -56 -46 -48 -113 41 -32 43 -62 84
-66 91 -9 14 -2 42 10 42 5 0 46 -27 93 -61z m-679 15 c30 -4 79 -1 122 6 l70
14 28 -33 c34 -41 46 -136 20 -161 -9 -8 -15 -27 -13 -41 3 -22 -19 -48 -145
-168 -81 -77 -151 -141 -155 -141 -5 0 -8 15 -8 33 -1 17 -18 134 -39 260
l-38 227 23 6 c17 4 62 -19 179 -91 87 -53 159 -94 162 -91 5 5 -33 30 -189
123 -54 32 -98 62 -98 67 0 4 7 6 15 2 8 -3 38 -8 66 -12z m362 -85 c-37 -43
-72 -79 -79 -79 -8 0 -13 20 -16 54 l-3 54 32 -5 c38 -6 78 16 95 52 8 19 14
22 24 14 10 -8 -2 -28 -53 -90z m257 6 c101 -131 106 -125 -112 -125 -120 0
-188 4 -195 11 -8 8 8 34 56 95 64 81 67 83 101 78 23 -4 42 0 55 10 11 8 22
15 25 15 3 0 34 -38 70 -84z m201 -31 c17 -8 29 -17 27 -19 -18 -18 -81 -54
-88 -50 -8 5 18 85 27 85 2 0 18 -7 34 -16z m76 -56 c16 -13 67 -58 112 -100
l82 -77 -7 -80 c-9 -111 -13 -114 -71 -60 -117 110 -243 248 -243 267 0 18 31
46 70 64 23 10 24 10 57 -14z m-207 -68 c7 -14 21 -20 44 -20 29 0 46 -14 142
-113 60 -62 124 -125 143 -140 19 -16 30 -32 25 -37 -18 -17 -218 -80 -313
-99 -162 -32 -176 -32 -200 -5 -25 29 -42 30 -66 4 -23 -26 -65 -26 -197 0
-110 21 -318 88 -318 101 0 5 53 59 117 121 64 62 130 127 145 143 19 20 36
29 51 27 14 -2 31 6 42 18 17 19 29 20 196 20 168 0 179 -1 189 -20z m453
-177 c18 -20 32 -40 32 -44 0 -4 -20 -22 -44 -39 l-44 -32 6 53 c4 30 7 64 7
77 0 30 5 28 43 -15z m-623 -285 c0 -5 -4 -8 -10 -8 -5 0 -10 10 -10 23 0 18
2 19 10 7 5 -8 10 -18 10 -22z"/>
<path d="M1795 2710 c-7 -34 -22 -38 -41 -12 -12 15 -13 13 -8 -15 6 -30 4
-32 -27 -35 l-34 -3 33 -18 33 -18 -21 -36 c-23 -40 -28 -38 39 -17 16 5 21 0
26 -30 7 -35 25 -51 25 -22 0 8 4 27 10 41 9 25 11 25 32 11 35 -25 41 -19 19
18 l-21 34 27 21 28 20 -27 1 c-23 0 -28 4 -28 26 0 21 -3 24 -13 15 -17 -14
-27 -4 -27 26 0 33 -17 28 -25 -7z m18 -45 c-3 -10 -1 -15 7 -13 6 2 16 -7 20
-19 7 -16 4 -28 -10 -45 -11 -13 -19 -18 -20 -11 0 6 3 13 8 16 4 2 1 2 -5 1
-7 -2 -17 6 -23 16 -6 11 -15 20 -21 20 -5 0 -1 -10 11 -22 11 -12 20 -27 20
-32 0 -6 -4 -5 -9 3 -5 8 -14 10 -22 6 -9 -6 -11 -4 -6 7 3 9 0 21 -6 28 -12
12 -4 20 20 22 5 0 14 9 21 19 16 23 24 25 15 4z"/>
<path d="M1775 591 c-62 -26 -78 -104 -30 -155 57 -62 171 3 150 87 -13 50
-76 86 -120 68z m69 -37 c3 -9 4 -20 0 -25 -3 -5 -1 -9 5 -9 6 0 8 -7 5 -15
-4 -8 -1 -15 5 -15 6 0 11 -4 11 -9 0 -7 -45 -23 -75 -25 -5 -1 -13 -5 -17
-11 -4 -6 -8 -2 -8 8 0 9 -5 16 -11 15 -6 -2 -14 4 -16 12 -4 13 -3 13 6 0 9
-12 11 -11 11 8 0 12 -5 22 -11 22 -16 0 -6 35 11 36 44 3 46 4 30 14 -11 7
-8 10 16 10 20 0 34 -6 38 -16z"/>
</g>
</svg>
