<?xml version="1.0" standalone="no"?>
<!DOCTYPE svg PUBLIC "-//W3C//DTD SVG 20010904//EN"
 "http://www.w3.org/TR/2001/REC-SVG-20010904/DTD/svg10.dtd">
<svg version="1.0" xmlns="http://www.w3.org/2000/svg"
 width="398.000000pt" height="374.000000pt" viewBox="0 0 398.000000 374.000000"
 preserveAspectRatio="xMidYMid meet">
<g transform="translate(0.000000,374.000000) scale(0.100000,-0.100000)"
fill="#ffffff" stroke="none">
<path d="M1917 3097 c-48 -50 -73 -83 -66 -87 6 -4 42 -38 80 -76 l70 -68 77
80 78 79 -80 76 -81 76 -78 -80z m69 -43 c-5 -13 -76 -21 -76 -9 0 3 17 23 38
45 l37 40 3 -31 c2 -17 1 -37 -2 -45z m104 -11 c0 -1 -18 -3 -40 -3 l-40 0 0
45 0 46 40 -42 c22 -23 40 -44 40 -46z m-100 -82 l0 -45 -50 49 c-27 27 -50
52 -50 55 0 4 23 2 50 -4 l50 -10 0 -45z m119 52 c-1 -5 -23 -28 -50 -52 l-49
-44 0 46 c0 39 3 46 23 50 39 7 77 7 76 0z"/>
<path d="M440 3024 c0 -5 16 -36 36 -69 20 -33 55 -94 77 -135 22 -41 62 -110
89 -152 26 -43 47 -78 45 -78 -5 0 -179 94 -204 110 -12 8 -24 12 -27 9 -6 -6
173 -281 205 -315 36 -38 21 -45 -38 -18 -86 39 -163 64 -163 54 0 -12 121
-181 178 -248 24 -29 42 -56 38 -59 -3 -3 -26 0 -51 7 -25 7 -48 11 -51 8 -6
-6 142 -151 214 -210 l54 -43 -66 -3 c-36 -2 -66 -6 -66 -10 1 -11 112 -87
189 -129 39 -21 71 -41 71 -45 0 -5 -18 -8 -39 -8 -22 0 -42 -4 -45 -9 -8 -12
11 -24 249 -146 116 -60 221 -116 235 -125 49 -34 132 -71 146 -66 8 3 24 -4
36 -16 18 -18 29 -20 79 -15 32 3 59 1 61 -4 5 -15 97 17 124 42 28 26 25 28
48 -34 l18 -48 -28 -37 c-15 -20 -79 -90 -143 -155 -64 -65 -117 -122 -119
-127 -3 -9 22 -8 128 5 22 3 49 -3 77 -17 40 -20 43 -24 37 -54 -5 -28 -2 -35
23 -50 15 -10 42 -33 59 -51 26 -27 39 -33 74 -33 51 0 62 6 123 65 42 40 48
50 42 74 -6 26 -2 31 37 49 39 19 51 20 122 11 43 -5 83 -8 88 -7 5 2 -52 68
-126 147 -75 78 -139 154 -142 167 -6 23 2 90 13 107 2 4 18 -4 34 -17 34 -29
103 -51 122 -39 6 4 40 6 75 4 57 -3 64 -1 69 18 4 16 11 19 32 15 17 -3 41 3
67 18 23 13 72 40 110 62 38 21 152 81 254 134 102 52 189 99 194 103 14 13 4
19 -45 27 l-44 8 70 39 c70 38 205 132 205 141 0 3 -29 4 -65 3 -36 -1 -68 0
-71 4 -3 3 9 13 26 22 18 9 82 66 144 126 l111 110 -45 -6 c-25 -4 -52 -11
-61 -16 -34 -18 -24 4 25 55 28 29 78 92 111 140 33 48 64 93 70 101 5 8 7 17
4 20 -6 6 -175 -61 -197 -78 -16 -13 -29 0 -17 17 29 39 225 338 225 343 0 3
-11 -2 -23 -10 -39 -25 -199 -109 -202 -105 -3 3 98 185 187 337 27 46 47 85
45 88 -4 4 -135 -80 -524 -336 -88 -58 -226 -146 -305 -195 -244 -151 -369
-238 -394 -275 -23 -34 -24 -43 -24 -205 0 -152 -2 -172 -20 -202 -22 -34 -72
-58 -112 -52 -32 4 -60 60 -61 119 -1 46 2 53 48 99 27 27 47 52 44 54 -2 3
-24 1 -47 -5 -35 -8 -49 -6 -82 11 -74 38 -150 20 -189 -43 -16 -27 -21 -51
-21 -108 0 -99 -13 -123 -67 -127 -34 -3 -47 2 -75 27 l-33 29 -5 189 c-4 155
-8 192 -22 213 -25 37 -129 113 -314 227 -46 29 -115 72 -152 96 -37 24 -96
61 -132 82 -77 45 -134 81 -253 161 -48 32 -143 94 -210 137 -67 42 -132 85
-144 93 -13 9 -23 13 -23 8z m3043 -81 c-3 -10 -14 -29 -23 -43 -20 -29 -104
-177 -153 -270 -39 -75 -64 -93 -307 -218 -80 -41 -151 -80 -159 -86 -12 -9
-13 -7 -6 9 4 11 16 41 25 67 10 30 30 58 52 75 65 52 99 88 164 170 58 73 82
93 237 197 94 63 173 115 174 115 1 1 0 -7 -4 -16z m-2595 -257 c21 -22 83
-87 140 -144 75 -75 102 -110 102 -128 0 -13 8 -37 17 -51 17 -26 17 -26 -5
-21 -42 11 -354 182 -387 213 -19 16 -75 102 -126 190 -51 88 -98 167 -106
176 -36 42 13 17 164 -83 91 -61 181 -129 201 -152z m191 -100 c63 -39 169
-105 235 -146 l119 -75 1 -43 c1 -23 0 -42 -1 -42 -11 0 -253 167 -308 211
-71 58 -202 188 -175 174 8 -4 67 -40 129 -79z m1964 67 c-16 -48 -138 -150
-340 -287 l-142 -96 4 41 c2 22 9 46 15 54 6 7 81 57 168 112 86 54 188 119
227 145 38 26 71 47 72 48 1 0 0 -8 -4 -17z m-2348 -103 c22 -14 101 -59 175
-100 195 -106 203 -112 265 -210 31 -49 62 -93 70 -100 28 -23 15 -32 -17 -12
-18 11 -67 34 -108 50 -207 83 -345 151 -365 180 -11 16 -42 63 -69 103 -27
41 -67 100 -89 133 l-39 58 68 -38 c38 -21 87 -49 109 -64z m2758 63 c-16 -21
-60 -87 -99 -146 -38 -59 -80 -118 -94 -131 -14 -13 -65 -40 -115 -61 -168
-70 -320 -137 -333 -148 -7 -5 -14 -8 -16 -6 -5 6 100 180 125 206 11 12 68
47 127 79 126 66 356 199 392 225 40 28 44 22 13 -18z m-2048 -351 c20 -16 30
-46 26 -74 -1 -4 -35 13 -77 38 -42 25 -95 54 -119 65 -37 17 -45 27 -59 69
-9 27 -16 53 -16 59 0 9 185 -110 245 -157z m1410 96 c-25 -53 -31 -58 -132
-112 -102 -56 -132 -61 -117 -22 6 17 264 199 271 192 2 -2 -8 -28 -22 -58z
m-2170 -21 c143 -64 433 -192 478 -210 20 -9 37 -22 37 -30 0 -7 11 -36 25
-62 13 -27 23 -51 21 -53 -2 -1 -44 8 -92 22 -49 13 -141 38 -204 56 -139 37
-169 48 -194 69 -21 18 -196 247 -196 257 0 7 -5 9 125 -49z m2818 26 c-33
-53 -154 -201 -188 -232 -19 -16 -54 -35 -77 -41 -24 -6 -99 -26 -168 -45 -69
-19 -138 -37 -155 -41 -16 -4 -42 -13 -57 -21 -16 -7 -28 -11 -28 -8 0 3 15
37 32 75 l32 70 96 41 c52 23 147 63 210 89 63 26 158 68 210 93 52 25 98 46
103 46 4 1 0 -11 -10 -26z m-943 -562 c-17 -65 -65 -125 -117 -148 -98 -44
-158 -36 -81 10 54 32 83 62 103 109 12 30 15 83 15 271 l0 233 43 31 42 31 3
-250 c1 -145 -2 -265 -8 -287z m-1004 508 c19 -11 34 -26 34 -32 0 -7 2 -115
5 -241 7 -284 12 -299 141 -404 l27 -22 -34 6 c-104 19 -186 87 -209 174 -16
58 -24 540 -9 540 6 0 27 -9 45 -21z m-291 -42 c50 -26 116 -64 148 -83 l57
-36 0 -54 c0 -30 -1 -54 -3 -54 -19 0 -155 54 -169 67 -10 9 -33 42 -50 72
-17 31 -45 76 -61 100 -16 24 -26 42 -21 40 5 -2 50 -26 99 -52z m1632 25
c-10 -10 -17 -22 -17 -26 0 -4 -15 -30 -33 -59 -18 -29 -38 -64 -45 -78 -10
-19 -35 -33 -101 -57 -49 -18 -91 -32 -93 -32 -3 0 -4 23 -3 51 2 61 -1 58
152 140 62 34 115 65 118 70 4 5 13 9 22 9 15 0 14 -2 0 -18z m-1234 -70 c27
-28 27 -31 35 -215 10 -216 13 -226 100 -267 52 -24 53 -26 47 -60 -4 -19 -8
-36 -9 -37 -10 -10 -113 30 -137 53 -64 61 -69 82 -75 329 -3 131 -2 225 3
225 5 0 21 -13 36 -28z m787 -200 l-5 -229 -29 -41 c-31 -46 -70 -73 -130 -92
-44 -14 -56 -5 -56 41 0 21 7 28 38 38 42 13 71 35 96 74 16 23 18 49 17 193
-2 171 0 182 43 231 28 32 31 9 26 -215z m-1453 -6 c150 -42 275 -76 278 -76
14 0 2 -18 -15 -23 -11 -3 -20 -13 -20 -24 0 -17 -10 -18 -157 -15 -157 3
-158 4 -188 31 -16 15 -43 37 -58 49 -16 11 -58 49 -95 83 -51 48 -60 61 -42
57 14 -3 148 -40 297 -82z m319 49 c42 -19 94 -40 115 -47 l39 -11 0 -67 0
-67 -66 18 c-36 10 -72 23 -80 29 -25 22 -104 180 -89 180 2 0 38 -16 81 -35z
m1534 30 c0 -2 -20 -44 -45 -94 l-45 -89 -76 -17 c-41 -9 -77 -15 -78 -13 -1
1 0 30 2 63 l4 60 111 46 c116 48 127 52 127 44z m530 -3 c0 -14 -130 -135
-185 -173 l-50 -34 -153 -5 c-135 -4 -152 -3 -152 11 0 9 -10 21 -22 26 -22
10 -22 11 12 25 19 8 121 38 225 68 105 29 217 61 250 71 70 21 75 22 75 11z
m-1276 -77 c11 -8 33 -15 50 -15 l29 0 -20 -22 c-46 -51 -54 -95 -28 -168 l15
-43 -56 -84 -56 -84 -47 63 c-62 82 -72 101 -60 119 5 7 9 46 9 86 0 81 9 112
41 142 27 25 94 28 123 6z m-722 -151 c85 -23 98 -30 98 -48 0 -12 11 -45 25
-74 14 -30 25 -57 25 -62 0 -4 -19 -4 -42 1 -24 4 -46 8 -50 9 -23 1 -122 98
-143 140 -27 52 -29 60 -18 60 3 0 51 -12 105 -26z m1418 10 c0 -31 -69 -119
-118 -151 -46 -30 -138 -60 -149 -49 -3 2 5 18 17 34 13 17 31 54 40 83 l18
53 89 22 c110 27 103 27 103 8z m433 -33 c-37 -33 -118 -84 -159 -102 -57 -24
-89 -22 -211 11 l-81 22 20 34 c11 19 21 35 21 36 4 3 402 13 410 9 5 -2 5 -6
0 -10z m-1963 -27 c11 -21 17 -40 13 -44 -4 -5 -59 -19 -121 -33 l-113 -25
-87 50 c-158 90 -159 88 80 88 l206 0 22 -36z m918 -98 c55 -108 10 -328 -89
-441 -52 -59 -61 -60 -107 -15 -89 88 -138 220 -129 350 5 69 22 130 36 130 6
0 33 -38 104 -144 15 -22 31 -42 35 -43 10 -3 94 134 107 174 5 18 12 33 16
33 3 0 15 -20 27 -44z m-845 4 c17 -16 29 -30 27 -32 -10 -7 -243 -81 -254
-81 -7 0 -38 12 -71 27 -71 34 -68 36 77 65 88 17 133 30 186 50 2 0 17 -12
35 -29z m1612 -24 l130 -33 -64 -32 c-61 -31 -66 -32 -95 -19 -17 8 -77 28
-133 44 -57 16 -103 31 -103 35 0 3 17 15 38 27 42 25 40 25 227 -22z m-1472
-42 c20 -4 37 -10 37 -13 0 -4 -28 -21 -62 -39 -35 -17 -87 -46 -116 -63 l-52
-31 -70 33 c-39 18 -70 35 -70 38 0 4 53 25 118 48 115 40 127 42 215 27z
m1395 -54 c23 -6 42 -14 42 -18 0 -9 -121 -72 -139 -72 -7 0 -43 19 -79 43
-37 23 -84 51 -104 62 -21 11 -38 22 -38 26 0 3 24 10 53 15 45 9 63 6 137
-18 47 -15 104 -32 128 -38z m-1255 21 c6 -6 -95 -98 -184 -168 -12 -10 -25
-7 -68 14 l-54 25 86 48 c48 27 99 57 114 68 46 32 81 36 106 13z m992 -49
c50 -30 100 -60 112 -66 13 -6 23 -13 23 -17 0 -6 -87 -49 -101 -49 -5 0 -22
11 -36 24 -14 14 -57 51 -94 83 -73 62 -82 79 -46 85 31 5 40 1 142 -60z
m-325 -33 c0 -8 9 -49 20 -90 25 -95 25 -109 0 -109 -29 0 -100 38 -100 53 0
6 7 37 15 67 8 30 15 74 15 97 0 23 3 49 7 59 6 15 10 11 25 -21 9 -22 18 -47
18 -56z m-454 10 c1 -29 8 -74 15 -101 11 -48 10 -51 -13 -74 -13 -14 -41 -27
-62 -31 -45 -7 -45 -16 -1 137 43 147 56 162 61 69z m684 -37 c50 -46 90 -89
90 -96 0 -13 -61 -46 -83 -46 -7 0 -45 50 -85 112 -53 80 -70 113 -61 118 21
14 46 -2 139 -88z m-820 79 c0 -11 -138 -208 -151 -217 -13 -8 -103 46 -92 55
4 4 40 34 78 67 39 33 83 70 99 82 29 22 66 29 66 13z m80 4 c0 -17 -64 -232
-72 -242 -14 -17 -80 -16 -104 1 -19 14 -18 15 6 48 13 18 48 68 77 110 29 42
59 79 66 81 16 7 27 8 27 2z m626 -111 c64 -98 74 -118 62 -130 -17 -18 -69
-27 -87 -15 -14 9 -81 240 -74 254 10 18 27 0 99 -109z m-217 -394 c18 -41 36
-79 42 -85 16 -16 10 -31 -16 -43 -14 -7 -28 -12 -30 -12 -2 0 -25 38 -51 85
-26 47 -51 85 -56 85 -11 0 -10 -58 2 -204 11 -134 10 -138 -50 -134 l-35 3 1
55 c0 30 4 106 9 168 6 80 5 112 -3 112 -6 0 -32 -40 -58 -90 -25 -49 -49 -90
-53 -90 -3 0 -17 9 -31 20 -25 19 -25 19 -8 52 41 80 78 171 84 208 4 22 9 40
12 40 4 0 26 -19 49 -42 l43 -42 47 47 47 47 11 -53 c6 -28 26 -86 44 -127z
m-329 2 l-52 -110 -55 -4 c-30 -1 -56 -2 -58 0 -2 2 37 45 87 95 49 51 97 102
105 115 33 49 22 9 -27 -96z m520 -114 c0 -14 -105 5 -117 21 -11 15 -69 145
-80 181 -3 8 40 -32 96 -90 55 -58 100 -108 101 -112z m-407 -59 l-6 -96 -33
21 c-28 17 -33 26 -28 46 6 27 64 133 69 128 2 -2 1 -47 -2 -99z m178 26 c25
-54 23 -76 -7 -98 -14 -11 -27 -17 -28 -15 -2 1 -6 46 -9 98 -6 88 -5 93 9 75
9 -11 25 -38 35 -60z"/>
<path d="M2000 1985 c-25 -30 5 -57 40 -35 11 7 12 14 4 27 -15 23 -29 26 -44
8z"/>
<path d="M1725 2983 c-202 -46 -415 -160 -538 -287 -65 -68 -41 -71 31 -5 111
102 288 201 436 243 49 15 94 26 100 26 18 0 50 26 40 32 -5 3 -36 -1 -69 -9z"/>
<path d="M2200 2987 c0 -9 22 -19 58 -26 195 -42 380 -136 520 -266 56 -52 82
-66 82 -46 0 17 -126 125 -208 179 -101 66 -229 122 -341 151 -99 25 -111 26
-111 8z"/>
<path d="M1692 2637 l-22 -23 25 -22 c25 -22 25 -22 45 -2 19 19 19 20 -4 45
l-23 25 -21 -23z"/>
<path d="M2257 2633 c-14 -16 -14 -20 3 -41 l19 -22 24 24 25 25 -24 15 c-29
20 -28 20 -47 -1z"/>
<path d="M1981 2580 c-14 -46 -35 -61 -79 -55 -44 6 -46 -7 -5 -35 31 -21 34
-28 30 -59 -3 -20 -8 -47 -12 -60 -8 -22 -6 -22 35 8 24 17 47 31 52 31 5 0
26 -12 45 -27 l37 -28 -8 25 c-22 77 -20 86 20 111 l39 24 -45 5 c-41 5 -47 9
-67 49 -29 57 -28 57 -42 11z m35 -55 c4 -8 13 -15 21 -15 13 0 13 -2 2 -17
-12 -15 -12 -16 4 -10 11 4 16 3 12 -4 -4 -6 -13 -8 -21 -5 -7 3 -16 1 -19 -4
-4 -6 1 -10 9 -10 10 0 13 -6 10 -15 -4 -8 -13 -15 -21 -15 -8 0 -11 5 -8 10
3 6 1 10 -4 10 -6 0 -11 -4 -11 -10 0 -19 -15 -10 -32 19 -14 26 -14 29 -1 24
11 -4 14 -2 11 8 -6 15 18 49 34 49 5 0 11 -7 14 -15z"/>
<path d="M2005 2516 c3 -11 0 -23 -7 -28 -9 -5 -10 -8 -1 -8 19 0 25 18 13 37
-11 17 -11 16 -5 -1z"/>
<path d="M780 1717 c0 -41 34 -204 61 -290 58 -189 171 -370 316 -507 86 -82
211 -172 225 -164 17 11 6 22 -76 77 -147 100 -283 258 -368 428 -54 108 -75
173 -107 329 -16 74 -34 136 -40 138 -6 2 -11 -3 -11 -11z"/>
<path d="M3186 1715 c-3 -9 -13 -59 -21 -112 -50 -309 -224 -592 -472 -766
-46 -32 -83 -65 -83 -73 0 -22 10 -17 94 46 160 119 292 271 371 429 67 135
135 373 135 477 0 19 -16 18 -24 -1z"/>
<path d="M1398 1066 l-27 -24 25 -23 c23 -22 24 -22 44 -4 24 22 24 24 2 52
l-17 22 -27 -23z"/>
<path d="M2542 1063 c-23 -26 -23 -26 -3 -44 25 -23 27 -23 49 -1 18 18 18 20
-2 45 l-21 26 -23 -26z"/>
<path d="M1535 733 c3 -14 50 -74 103 -132 228 -249 347 -376 355 -380 5 -2
25 14 43 35 19 21 60 65 92 98 263 277 332 356 332 380 0 14 -2 26 -5 26 -3 0
-107 -70 -231 -155 l-226 -154 -156 106 c-87 58 -187 128 -223 155 -77 56 -94
60 -84 21z m864 -50 c-15 -19 -234 -255 -339 -365 l-65 -69 -142 153 c-77 84
-168 181 -201 216 -58 60 -70 92 -21 53 13 -10 101 -71 196 -135 l172 -116
163 112 c90 61 181 124 202 140 45 32 54 35 35 11z"/>
<path d="M2458 673 l-67 -75 71 -79 72 -79 78 77 78 78 -77 77 c-43 43 -80 78
-83 77 -3 0 -35 -34 -72 -76z m140 -21 l51 -59 -52 -51 c-29 -29 -57 -52 -63
-52 -12 0 -104 94 -104 106 0 10 101 114 111 114 3 0 29 -26 57 -58z"/>
<path d="M2514 615 l-22 -20 24 -18 c20 -15 27 -15 44 -5 26 16 25 29 -3 48
-20 14 -24 14 -43 -5z"/>
<path d="M1380 674 c-39 -37 -69 -71 -68 -75 2 -5 36 -42 77 -84 52 -54 76
-73 82 -64 4 7 38 43 74 80 l66 66 -71 69 c-39 38 -75 70 -80 72 -5 2 -40 -27
-80 -64z m143 -24 l52 -49 -55 -56 c-30 -30 -58 -55 -62 -55 -4 0 -30 23 -57
52 l-49 52 19 27 c23 32 76 79 91 79 5 0 33 -22 61 -50z"/>
<path d="M1432 612 l-24 -18 27 -18 c27 -18 28 -17 48 3 21 21 21 21 2 36 -25
18 -25 18 -53 -3z"/>
</g>
</svg>
