<?xml version="1.0" standalone="no"?> <!DOCTYPE svg PUBLIC "-//W3C//DTD SVG 20010904//EN" "http://www.w3.org/TR/2001/REC-SVG-20010904/DTD/svg10.dtd"> <svg version="1.0" xmlns="http://www.w3.org/2000/svg" width="370.000000pt" height="370.000000pt" viewBox="0 0 370.000000 370.000000" preserveAspectRatio="xMidYMid meet"> <g transform="translate(0.000000,370.000000) scale(0.100000,-0.100000)" fill="#ffffff" stroke="none"> <path d="M1599 3533 c-13 -16 -12 -17 4 -4 16 13 21 21 13 21 -2 0 -10 -8 -17 -17z"/> <path d="M1660 3520 c0 -26 -4 -30 -27 -30 -16 0 -36 -7 -46 -15 -21 -15 -33 -80 -23 -120 9 -34 67 -97 122 -132 l44 -28 0 -287 0 -288 -123 0 -123 0 -29 30 c-16 17 -34 30 -40 30 -13 0 -145 -133 -145 -147 0 -5 33 -41 74 -82 l74 -73 43 47 c24 26 44 51 44 55 0 12 15 25 28 25 7 0 13 8 15 18 4 20 -34 67 -54 67 -7 0 -16 4 -19 10 -4 7 3 7 20 0 41 -16 658 -13 674 3 11 10 12 8 3 -8 -6 -11 -20 -29 -31 -39 -13 -12 -19 -26 -15 -38 5 -17 -9 -18 -288 -20 -339 -1 -318 0 -318 -13 0 -6 27 -10 60 -10 l60 0 0 -942 0 -942 48 -83 c27 -46 71 -125 98 -176 27 -50 52 -92 55 -92 4 0 12 13 19 30 7 16 48 94 91 172 l79 143 1 937 c0 516 -2 941 -4 945 -3 5 29 7 71 5 l77 -3 42 -47 42 -47 25 24 c14 13 23 29 19 35 -3 6 -2 8 2 3 11 -9 105 82 105 101 0 9 -6 12 -16 8 -9 -4 -13 -2 -8 5 6 11 -102 129 -119 129 -5 0 -22 -13 -37 -30 l-28 -30 -121 0 -121 0 0 284 0 285 66 47 c73 52 103 101 104 165 0 49 -32 89 -71 89 -26 0 -29 3 -29 30 l0 30 -185 0 -185 0 0 -30z m332 -106 c-2 -111 -9 -141 -49 -188 -67 -80 -145 -75 -209 16 -30 41 -32 48 -36 161 l-4 118 149 -3 150 -3 -1 -101z m-312 66 c0 -5 -5 -10 -11 -10 -5 0 -7 5 -4 10 3 6 8 10 11 10 2 0 4 -4 4 -10z m-20 -99 c0 -59 4 -84 16 -95 25 -26 -2 -18 -35 10 -50 42 -65 146 -23 157 41 11 42 9 42 -72z m410 69 c24 -13 34 -59 20 -95 -11 -29 -68 -98 -85 -103 -5 -1 -10 4 -11 13 -1 8 1 13 5 10 13 -7 31 68 31 129 0 57 6 64 40 46z m-360 -195 c0 -7 -30 -13 -34 -7 -3 4 4 9 15 9 10 1 19 0 19 -2z m243 -65 c-3 -11 -9 -23 -14 -26 -5 -3 -9 -29 -9 -57 l0 -52 -62 -39 c-35 -21 -73 -45 -84 -53 -22 -14 -22 -13 -20 54 1 37 -1 84 -4 104 -6 32 -5 36 12 31 19 -4 26 -32 8 -32 -5 0 -10 -7 -10 -15 0 -20 -1 -20 84 22 45 22 79 46 85 60 13 28 21 30 14 3z m-113 -44 c0 -2 -7 -6 -15 -10 -8 -3 -15 -1 -15 4 0 6 7 10 15 10 8 0 15 -2 15 -4z m103 -111 c-3 -9 -8 -14 -10 -11 -3 3 -2 9 2 15 9 16 15 13 8 -4z m-17 -150 c-2 -6 -41 -35 -86 -63 l-81 -52 3 67 3 68 80 53 80 53 3 -57 c2 -31 1 -62 -2 -69z m4 -117 c0 -111 -14 -127 -115 -137 l-60 -7 3 48 c4 47 6 49 79 103 42 30 79 55 84 55 5 0 9 -28 9 -62z m10 -136 c0 -14 -8 -19 -29 -19 -26 0 -27 2 -14 15 13 13 16 13 24 1 7 -11 9 -11 9 4 0 9 2 17 5 17 3 0 5 -8 5 -18z m-481 -37 c18 -25 37 -45 42 -45 34 0 -62 -114 -98 -116 -12 -1 -19 4 -17 10 2 6 -14 29 -36 51 l-40 39 52 53 c29 29 55 53 58 53 3 0 20 -21 39 -45z m824 32 c7 -7 29 -31 50 -53 l38 -41 -52 -57 -52 -56 -28 26 c-15 14 -29 22 -31 17 -3 -4 -3 -2 -1 6 2 8 -6 24 -18 37 l-21 23 48 55 c26 31 50 56 52 56 2 0 9 -6 15 -13z m-87 -45 c-18 -16 -18 -16 -6 6 6 13 14 21 18 18 3 -4 -2 -14 -12 -24z m-43 -62 c3 -11 2 -22 -2 -24 -4 -3 -8 6 -9 20 -2 29 4 31 11 4z m-822 -27 c13 -16 12 -17 -3 -4 -10 7 -18 15 -18 17 0 8 8 3 21 -13z m349 -23 c0 -5 -2 -10 -4 -10 -3 0 -8 5 -11 10 -3 6 -1 10 4 10 6 0 11 -4 11 -10z m258 -3 c20 -2 17 -8 -38 -69 -43 -47 -58 -71 -53 -84 4 -12 2 -15 -8 -12 -8 3 -13 11 -11 17 3 16 -111 157 -116 143 -4 -12 -22 -7 -22 6 0 6 184 5 248 -1z m64 -934 l-2 -936 -49 -91 c-72 -134 -85 -156 -94 -156 -4 0 -7 434 -6 966 l1 965 41 52 c22 29 56 70 76 91 20 22 28 36 19 33 -12 -4 -15 -2 -12 8 3 8 11 12 17 9 9 -3 11 -234 9 -941z m-285 885 c16 -18 46 -55 66 -82 l37 -49 0 -957 c0 -825 2 -959 15 -976 17 -22 20 -38 5 -29 -5 3 -10 -4 -10 -16 0 -18 2 -19 15 -9 13 11 14 10 9 -4 -10 -25 -29 -13 -29 17 1 15 -3 27 -7 27 -4 0 -8 5 -8 10 0 6 -31 65 -70 133 l-70 123 0 922 c0 507 4 922 8 922 4 0 22 -15 39 -32z m243 18 c0 -2 -8 -10 -17 -17 -16 -13 -17 -12 -4 4 13 16 21 21 21 13z"/> <path d="M1814 3395 l-26 -34 24 -30 c12 -17 25 -30 28 -30 3 0 17 15 31 32 l27 32 -29 32 -28 33 -27 -35z m45 -50 c-17 -17 -21 -18 -34 -4 -13 13 -13 17 1 37 16 23 17 23 34 5 17 -17 17 -19 -1 -38z"/> <path d="M1843 3362 c1 -14 5 -18 11 -12 7 7 6 14 -1 21 -9 9 -12 7 -10 -9z"/> <path d="M1766 2283 c-6 -14 -5 -15 5 -6 7 7 10 15 7 18 -3 3 -9 -2 -12 -12z"/> <path d="M1580 2841 c-95 -27 -141 -45 -233 -93 -82 -43 -224 -149 -234 -175 -12 -32 10 -22 80 34 129 104 245 164 405 208 37 11 62 23 62 31 0 17 0 17 -80 -5z"/> <path d="M2032 2844 c2 -11 31 -24 86 -40 144 -42 322 -143 401 -228 24 -25 51 -35 51 -17 0 21 -134 131 -221 180 -79 45 -274 121 -310 121 -6 0 -9 -7 -7 -16z"/> <path d="M700 2562 c0 -4 23 -35 50 -67 l51 -60 -43 -5 -43 -5 0 -93 0 -92 165 -1 c134 -1 164 1 162 12 -2 8 0 10 5 6 4 -5 8 -12 9 -15 0 -4 18 -25 40 -48 21 -22 62 -79 89 -127 l50 -88 108 -55 c72 -37 127 -74 164 -110 30 -30 57 -54 59 -54 13 0 -3 25 -56 85 -33 37 -84 109 -114 159 l-55 92 -103 51 c-57 29 -119 65 -138 81 l-34 29 -1 154 0 154 -65 0 c-63 0 -65 -1 -68 -27 -4 -30 12 -38 22 -13 3 9 19 15 41 15 l35 0 1 -117 c0 -65 2 -126 4 -135 3 -17 -9 -18 -147 -18 l-150 0 4 65 c1 36 0 66 -5 68 -4 1 47 0 113 -1 148 -4 151 1 50 116 l-45 52 -77 0 c-43 0 -78 -4 -78 -8z m107 -22 c33 -1 42 -7 76 -49 20 -27 37 -52 37 -55 0 -3 -17 -6 -37 -6 -34 1 -45 8 -98 67 -32 36 -50 61 -38 54 12 -6 39 -11 60 -11z m378 -390 c3 -5 35 -23 70 -40 58 -28 67 -37 109 -107 26 -42 45 -77 44 -78 -2 -1 -34 13 -73 31 -64 31 -74 41 -112 103 -24 38 -43 73 -43 79 0 5 -10 17 -22 26 -23 16 -23 16 -1 6 12 -5 25 -14 28 -20z m245 -240 c0 -5 -5 -10 -11 -10 -5 0 -7 5 -4 10 3 6 8 10 11 10 2 0 4 -4 4 -10z"/> <path d="M2617 2563 c-4 -3 -7 -75 -7 -159 l0 -153 -31 -23 c-18 -13 -79 -48 -137 -78 l-105 -55 -56 -93 c-31 -51 -82 -122 -113 -159 -32 -37 -58 -71 -58 -76 0 -5 29 18 65 51 59 55 121 92 241 142 23 10 41 34 77 100 25 48 64 107 86 131 l39 44 172 5 173 5 -2 85 c-1 46 -5 88 -7 92 -3 4 -24 8 -47 8 l-41 0 35 38 c39 40 69 82 69 94 0 5 -37 8 -82 8 -82 0 -83 -1 -106 -33 -12 -17 -34 -47 -47 -66 -47 -65 -40 -71 85 -71 l110 0 0 -65 0 -65 -145 0 -145 0 0 135 0 135 40 0 c34 0 40 -3 40 -21 0 -11 5 -17 10 -14 6 3 10 19 10 36 0 29 0 29 -58 29 -32 0 -62 -3 -65 -7z m306 -25 c-78 -104 -85 -109 -125 -103 -25 4 -38 3 -38 -4 0 -6 -4 -11 -10 -11 -5 0 9 27 33 59 40 57 44 59 92 63 28 2 52 5 54 6 2 1 -1 -4 -6 -10z m-394 -371 c-9 -7 -31 -39 -49 -72 -46 -83 -73 -110 -139 -136 -31 -13 -61 -30 -67 -37 -9 -13 -12 -13 -19 -1 -5 8 -5 11 0 7 4 -4 31 29 59 74 46 73 57 84 105 105 30 14 68 35 84 49 16 13 32 24 35 24 4 0 0 -6 -9 -13z"/> <path d="M2790 2193 c0 -3 11 -35 25 -70 14 -35 36 -113 49 -175 13 -66 28 -114 36 -116 10 -4 11 8 6 57 -7 62 -58 258 -77 292 -9 18 -39 27 -39 12z"/> <path d="M837 2148 c-24 -64 -56 -195 -64 -261 -5 -49 -4 -57 9 -52 10 4 18 25 22 59 7 63 61 255 76 270 15 15 12 26 -9 26 -12 0 -23 -13 -34 -42z"/> <path d="M708 1734 c-32 -31 -58 -59 -58 -63 0 -3 27 -33 60 -66 l60 -59 60 59 c33 33 60 64 60 69 0 9 -110 116 -120 116 -3 0 -31 -25 -62 -56z m112 -18 l47 -44 -47 -47 -48 -48 -48 47 -47 47 43 44 c25 25 46 45 49 45 2 0 25 -20 51 -44z"/> <path d="M755 1690 c-18 -19 -18 -22 -2 -37 16 -16 18 -16 37 3 20 20 20 21 2 37 -18 16 -20 16 -37 -3z"/> <path d="M1327 1738 l-48 -50 -50 7 c-43 6 -95 -4 -118 -22 -3 -2 15 -23 39 -48 l44 -44 -50 -45 c-51 -46 -51 -45 1 -61 8 -2 39 0 69 6 81 15 121 -4 130 -62 11 -67 27 -27 21 52 -5 61 -3 69 25 108 l31 42 -25 29 c-35 42 -40 65 -22 102 28 55 16 51 -47 -14z m13 -47 c0 -5 12 -24 26 -41 l27 -31 -32 -40 c-27 -33 -31 -45 -26 -70 7 -29 6 -30 -15 -19 -12 6 -54 11 -93 10 -40 -1 -76 -2 -82 -1 -5 1 10 19 35 40 l45 39 -40 42 c-33 34 -37 42 -25 50 34 21 65 10 115 -40 27 -27 54 -50 59 -50 6 0 -7 17 -27 38 -44 45 -46 55 -9 69 36 14 42 15 42 4z"/> <path d="M2835 1730 l-59 -60 59 -60 c33 -33 64 -60 70 -60 5 0 36 28 69 61 l58 61 -58 59 c-32 32 -63 59 -69 59 -6 0 -37 -27 -70 -60z m119 -16 l39 -45 -44 -45 -43 -44 -45 45 -45 45 44 45 c24 25 47 45 50 44 3 0 23 -21 44 -45z"/> <path d="M2884 1689 c-18 -20 -18 -21 0 -34 35 -26 69 10 37 39 -16 15 -19 15 -37 -5z"/> <path d="M2279 1764 c-14 -4 -16 -23 -14 -140 l3 -135 67 -52 c37 -29 73 -56 80 -61 9 -7 24 0 48 21 19 17 56 45 81 62 l46 32 0 134 0 135 -127 0 c-71 0 -137 2 -148 4 -11 2 -27 2 -36 0z m281 -146 l0 -123 -28 -16 c-15 -9 -45 -31 -68 -47 l-41 -31 -66 51 -67 51 0 118 0 119 135 0 135 0 0 -122z"/> <path d="M2408 1669 c-10 -5 -18 -15 -18 -22 0 -13 88 -53 97 -44 5 6 -47 75 -57 76 -3 0 -13 -4 -22 -10z"/> <path d="M2370 1590 c-11 -7 -9 -16 14 -49 16 -23 33 -41 37 -41 13 0 11 18 -3 24 -7 3 -4 4 7 1 25 -6 54 11 40 23 -31 27 -82 50 -95 42z m55 -38 c19 -11 19 -12 -3 -9 -12 2 -27 8 -33 14 -15 15 8 12 36 -5z"/> <path d="M2503 1505 c0 -8 4 -12 9 -9 5 3 6 10 3 15 -9 13 -12 11 -12 -6z"/> <path d="M2997 1748 c19 -21 31 -25 14 -5 -6 8 -9 16 -6 19 3 2 -2 5 -10 5 -13 0 -13 -3 2 -19z"/> <path d="M1556 1718 c3 -5 10 -6 15 -3 13 9 11 12 -6 12 -8 0 -12 -4 -9 -9z"/> <path d="M640 1567 c0 -2 6 -10 14 -16 11 -9 16 -9 22 1 4 7 4 10 -1 6 -4 -4 -14 -3 -22 3 -7 6 -13 9 -13 6z"/> <path d="M1049 1513 c-13 -16 -12 -17 4 -4 9 7 17 15 17 17 0 8 -8 3 -21 -13z"/> <path d="M780 1501 c0 -5 16 -56 36 -113 39 -112 96 -224 155 -304 48 -65 148 -174 160 -174 21 0 6 29 -37 70 -118 115 -225 306 -273 488 -7 25 -18 42 -26 42 -8 0 -15 -4 -15 -9z"/> <path d="M2862 1463 c-15 -57 -74 -193 -120 -278 -17 -33 -73 -106 -122 -163 -63 -71 -85 -102 -72 -102 19 0 124 110 180 189 62 86 172 333 172 387 0 34 -27 10 -38 -33z"/> <path d="M2145 1281 c-3 -5 -2 -12 3 -15 5 -3 9 1 9 9 0 17 -3 19 -12 6z"/> <path d="M2100 1239 c0 -7 19 -37 42 -67 23 -30 74 -101 113 -159 l70 -105 89 -33 c111 -41 168 -93 193 -174 14 -44 23 -55 48 -64 16 -6 63 -28 104 -49 82 -42 102 -47 78 -20 -9 10 -38 55 -64 102 l-49 84 -59 11 c-54 11 -65 18 -112 70 -29 32 -74 93 -99 136 l-45 78 -102 50 c-70 33 -119 65 -154 100 -29 28 -53 46 -53 40z m115 -119 c-3 -5 0 -10 9 -10 8 0 16 -4 18 -10 2 -5 35 -22 73 -38 66 -27 72 -32 110 -95 22 -37 49 -74 60 -83 22 -18 19 -17 -79 23 -66 27 -71 31 -123 110 -29 44 -60 84 -68 87 -17 6 -20 26 -4 26 5 0 7 -4 4 -10z m508 -420 c10 -19 28 -50 39 -68 l20 -33 -36 25 c-20 13 -50 27 -66 31 -18 4 -31 15 -35 28 -18 62 -19 59 21 55 31 -2 41 -9 57 -38z"/> <path d="M1518 1193 c-30 -30 -82 -64 -149 -97 l-102 -51 -54 -90 c-30 -49 -74 -110 -99 -135 -37 -37 -54 -47 -100 -55 -46 -8 -58 -15 -72 -40 -9 -16 -36 -61 -60 -99 -24 -37 -41 -70 -38 -73 2 -3 25 8 51 23 26 15 72 37 103 50 52 21 57 26 75 76 32 87 87 134 216 186 67 26 72 30 122 107 28 44 76 113 106 152 30 40 53 77 51 83 -2 6 -24 -11 -50 -37z m-77 -100 c-6 -10 -32 -49 -58 -87 -42 -61 -56 -72 -109 -95 -34 -14 -68 -32 -78 -40 -9 -8 9 26 39 75 55 87 58 90 133 126 42 20 78 37 80 37 1 1 -2 -7 -7 -16z m-377 -351 c-6 -4 -15 -20 -21 -37 -7 -23 -26 -39 -78 -67 -37 -21 -70 -38 -72 -38 -3 0 6 13 19 28 12 15 32 47 42 70 18 39 22 42 57 42 21 0 41 5 44 11 4 6 10 8 13 4 4 -3 2 -9 -4 -13z"/> <path d="M1213 1045 c0 -8 4 -12 9 -9 5 3 6 10 3 15 -9 13 -12 11 -12 -6z"/> <path d="M1250 820 c0 -20 263 -140 308 -140 44 0 17 22 -55 45 -39 12 -106 41 -148 64 -77 41 -105 50 -105 31z"/> <path d="M2355 807 c-45 -25 -135 -65 -207 -91 -27 -10 -48 -24 -48 -32 0 -17 -4 -18 61 5 88 30 270 121 264 131 -9 15 -26 12 -70 -13z"/> <path d="M2485 771 c-3 -5 -2 -12 3 -15 5 -3 9 1 9 9 0 17 -3 19 -12 6z"/> <path d="M804 536 c1 -8 5 -18 8 -22 4 -3 5 1 4 10 -1 8 -5 18 -8 22 -4 3 -5 -1 -4 -10z"/> </g> </svg>