<?xml version="1.0" standalone="no"?>
<!DOCTYPE svg PUBLIC "-//W3C//DTD SVG 20010904//EN"
 "http://www.w3.org/TR/2001/REC-SVG-20010904/DTD/svg10.dtd">
<svg version="1.0" xmlns="http://www.w3.org/2000/svg"
 width="344.000000pt" height="310.000000pt" viewBox="0 0 344.000000 310.000000"
 preserveAspectRatio="xMidYMid meet">
<g transform="translate(0.000000,310.000000) scale(0.100000,-0.100000)"
fill="#ffffff" stroke="none">
<path d="M1595 2750 c-563 -53 -1039 -513 -1115 -1078 -19 -140 -8 -373 23
-487 52 -187 112 -312 216 -453 69 -92 200 -218 291 -277 83 -55 240 -131 310
-151 30 -8 78 -22 105 -29 125 -35 328 -44 484 -20 266 40 499 160 696 359
151 152 222 262 291 453 53 145 78 311 70 463 -10 210 -50 365 -143 550 -121
241 -308 425 -560 549 -211 104 -429 143 -668 121z m355 -46 c377 -71 726
-348 873 -693 20 -47 35 -86 33 -88 -2 -2 -18 15 -36 38 -46 57 -211 202 -295
259 -132 89 -280 153 -429 184 -55 11 -67 11 -77 0 -13 -16 -7 -19 56 -29 67
-10 236 -65 300 -97 80 -41 165 -96 165 -107 0 -5 -30 3 -67 18 -106 43 -347
101 -361 87 -7 -8 77 -46 101 -46 114 0 423 -131 523 -222 70 -65 141 -172
170 -260 32 -94 30 -114 -5 -51 -127 230 -334 368 -641 428 -82 16 -260 20
-260 6 0 -15 28 -21 95 -21 137 0 309 -43 448 -111 141 -70 228 -146 306 -268
100 -157 112 -334 39 -586 -92 -321 -322 -596 -623 -745 -343 -171 -729 -174
-1075 -9 -142 68 -227 127 -335 234 -317 314 -431 772 -304 1223 76 271 280
538 534 699 243 154 569 214 865 157z"/>
<path d="M1697 2522 c-11 -48 -21 -102 -24 -119 -3 -18 -10 -33 -16 -33 -6 0
-50 25 -98 55 -48 30 -90 55 -93 55 -4 0 1 -12 12 -27 22 -32 95 -174 90 -177
-2 -1 -48 -12 -103 -25 -55 -12 -107 -25 -115 -27 -8 -3 36 -19 99 -35 62 -16
117 -32 122 -34 4 -3 -3 -22 -16 -42 -14 -20 -25 -41 -25 -47 0 -7 -14 -34
-31 -60 -35 -57 -31 -56 81 13 52 32 82 46 85 38 2 -6 14 -63 27 -124 12 -62
26 -113 29 -113 4 0 10 19 13 43 4 23 17 79 29 123 l22 81 88 -52 c48 -29 87
-49 87 -44 0 6 -20 45 -45 88 -25 43 -45 82 -45 87 0 5 37 20 83 33 45 13 99
29 121 35 l38 12 -121 28 c-116 27 -135 38 -111 62 17 17 99 158 95 163 -3 2
-23 -9 -46 -24 -74 -48 -141 -86 -146 -81 -8 7 -53 189 -53 214 0 48 -16 18
-33 -66z m64 -191 c2 -6 22 2 49 20 25 16 57 37 73 45 26 14 25 11 -19 -57
-51 -80 -50 -83 25 -94 107 -15 118 -27 39 -43 -29 -6 -65 -15 -81 -21 l-27
-11 23 -37 c13 -21 32 -53 42 -72 l17 -34 -33 22 c-42 28 -100 54 -106 48 -8
-8 -33 -111 -33 -137 -1 -41 -16 -4 -31 75 -7 39 -13 71 -14 73 -3 4 -98 -50
-117 -66 -27 -23 -21 0 17 68 37 66 39 71 28 68 -5 -1 -26 3 -48 10 -22 6 -53
14 -69 17 -16 3 -25 10 -20 14 12 10 86 31 113 31 11 0 21 4 21 8 0 13 -63
126 -74 134 -6 4 -7 8 -2 8 12 0 95 -48 119 -68 9 -8 19 -13 22 -10 3 3 13 34
21 69 24 98 25 99 44 23 10 -40 19 -77 21 -83z"/>
<path d="M1335 2356 c-289 -111 -551 -338 -681 -588 -25 -49 -42 -88 -39 -88
4 0 48 42 98 94 121 122 225 194 389 267 103 45 227 79 292 79 36 0 46 4 46
16 0 15 -9 16 -73 11 -133 -12 -290 -71 -447 -170 -52 -32 -114 -77 -137 -98
-70 -64 -69 -52 3 41 69 90 222 229 320 292 63 41 162 89 244 118 41 15 76 33
78 39 6 17 -27 12 -93 -13z"/>
<path d="M1985 1864 c-14 -22 -14 -26 0 -40 8 -8 15 -20 15 -26 0 -6 11 1 25
17 l26 27 -25 23 -25 23 -16 -24z"/>
<path d="M985 1851 c-11 -5 -34 -24 -51 -42 -45 -49 -246 -330 -257 -360 -9
-22 -4 -40 31 -110 50 -103 176 -315 205 -347 38 -42 69 -50 227 -61 85 -6
175 -13 199 -15 85 -7 112 9 187 119 185 271 194 285 194 323 -1 53 -43 143
-168 354 -74 125 -73 124 -199 131 -243 14 -349 16 -368 8z m308 -37 c75 -4
137 -10 137 -14 0 -4 -15 -27 -33 -51 -18 -24 -53 -71 -77 -104 -92 -126 -133
-167 -188 -193 -49 -22 -61 -24 -155 -18 -239 15 -259 17 -253 33 14 36 241
326 269 344 26 17 43 19 97 15 36 -3 127 -8 203 -12z m204 -66 c24 -27 164
-287 183 -339 7 -20 10 -48 6 -62 -11 -47 -237 -376 -258 -377 -4 0 -10 10
-13 23 -4 12 -48 96 -98 187 -130 235 -130 230 46 468 50 67 96 122 102 122 7
0 21 -10 32 -22z m-295 -343 l-4 -44 -39 22 c-21 12 -39 25 -39 28 0 5 62 35
80 38 3 1 4 -19 2 -44z m-241 -4 c191 -14 205 -25 317 -221 100 -177 123 -227
107 -233 -23 -10 -378 24 -412 38 -36 16 -65 56 -155 215 -92 162 -110 199
-102 211 4 7 28 8 63 5 31 -4 113 -10 182 -15z"/>
<path d="M1032 1660 c-37 -35 -23 -80 25 -80 32 0 75 44 71 73 -4 32 -64 36
-96 7z m48 -25 c8 -9 9 -15 2 -15 -6 0 -14 5 -17 11 -5 6 -12 4 -21 -8 -7 -10
-14 -13 -14 -7 0 11 20 34 31 34 4 0 12 -7 19 -15z"/>
<path d="M1443 1682 c-41 -26 -28 -124 16 -130 32 -5 51 21 51 68 0 50 -35 82
-67 62z m31 -72 c7 -24 6 -24 -8 -6 -9 11 -16 27 -16 35 0 21 16 2 24 -29z"/>
<path d="M1287 1452 c-36 -39 -13 -122 33 -122 38 0 54 76 24 118 -18 27 -36
28 -57 4z m44 -77 c-5 -18 -6 -18 -9 -2 -2 9 -8 15 -13 12 -5 -4 -9 5 -9 19 0
25 1 25 18 9 11 -11 16 -26 13 -38z"/>
<path d="M1573 1444 c-7 -3 -17 -20 -23 -39 -16 -48 9 -98 48 -93 22 2 29 10
36 41 16 65 -14 111 -61 91z m27 -39 c0 14 20 -17 20 -32 0 -22 -16 -14 -28
12 -14 31 -15 46 -2 25 5 -8 10 -10 10 -5z"/>
<path d="M1422 1202 c-22 -14 -27 -78 -8 -107 9 -14 22 -25 30 -25 22 0 46 35
46 69 0 59 -30 87 -68 63z m28 -56 c0 -14 -4 -27 -8 -30 -5 -3 -9 8 -9 24 0
17 4 30 9 30 4 0 8 -11 8 -24z"/>
<path d="M793 1373 c-31 -12 2 -85 48 -108 24 -13 34 -14 45 -4 30 25 11 80
-36 104 -30 16 -37 17 -57 8z m57 -49 c0 -8 -5 -14 -12 -14 -6 0 -8 3 -5 7 4
3 2 12 -5 20 -8 11 -7 12 6 7 9 -3 16 -12 16 -20z"/>
<path d="M1058 1349 c-25 -14 -22 -51 5 -77 30 -28 68 -36 91 -19 17 12 17 16
3 43 -26 50 -67 72 -99 53z m58 -48 c-4 -5 0 -12 6 -15 7 -3 2 -3 -11 0 -18 5
-22 3 -16 -7 6 -11 5 -11 -5 -2 -15 13 -5 33 16 33 8 0 13 -4 10 -9z"/>
<path d="M941 1106 c-26 -31 26 -96 75 -96 28 0 38 14 30 45 -11 42 -84 77
-105 51z"/>
<path d="M1201 1081 c-22 -14 -4 -59 32 -81 38 -24 60 -25 77 -5 17 21 3 54
-33 76 -35 21 -55 23 -76 10z"/>
<path d="M2155 1635 c-195 -32 -240 -43 -259 -63 -8 -10 -57 -103 -108 -207
-115 -236 -116 -241 -39 -352 30 -43 88 -126 128 -186 93 -134 103 -142 191
-133 76 7 310 51 360 67 37 12 65 51 191 259 107 176 110 186 76 249 -15 27
-53 81 -84 119 -31 38 -82 106 -114 150 -91 125 -119 133 -342 97z m235 -25
c17 -9 63 -66 232 -288 26 -35 48 -69 48 -77 0 -9 -16 -16 -47 -20 -27 -3
-107 -14 -179 -25 -176 -27 -213 -14 -304 106 -25 33 -77 101 -117 151 -40 51
-73 96 -73 101 0 8 75 24 240 51 77 12 178 13 200 1z m-418 -138 c26 -37 81
-112 123 -166 77 -102 92 -139 82 -202 -4 -24 -165 -337 -192 -371 -1 -2 -31
41 -67 95 -37 53 -92 131 -122 172 -31 41 -62 92 -68 113 -11 38 -9 43 86 233
54 107 101 194 104 194 4 -1 28 -31 54 -68z m305 -315 c-1 -4 -17 -17 -35 -28
l-32 -21 0 30 c0 17 -3 37 -6 46 -5 13 -1 13 35 -2 22 -9 40 -21 38 -25z m393
33 c0 -23 -106 -210 -181 -322 -22 -32 -52 -64 -67 -72 -43 -22 -374 -82 -392
-71 -25 15 178 347 236 387 37 26 93 39 397 87 4 0 7 -4 7 -9z"/>
<path d="M2287 1582 c-24 -27 -21 -40 16 -62 32 -21 68 -20 94 2 17 14 0 44
-37 63 -38 20 -53 19 -73 -3z m83 -29 c0 -2 -10 -1 -22 3 -13 4 -28 7 -35 7
-7 0 -10 4 -7 8 4 8 64 -9 64 -18z"/>
<path d="M2031 1546 c-8 -10 -6 -19 9 -38 28 -36 75 -54 105 -40 33 15 31 35
-6 66 -34 29 -89 35 -108 12z m78 -27 c6 9 11 10 15 2 8 -12 -8 -20 -36 -18
-10 0 -14 6 -11 15 5 11 7 11 14 0 8 -11 10 -11 18 1z"/>
<path d="M2348 1459 c-38 -22 -4 -69 50 -69 29 0 32 3 32 30 0 42 -42 63 -82
39z"/>
<path d="M2483 1344 c-20 -9 -15 -49 7 -69 27 -25 98 -26 114 -3 22 36 -74 93
-121 72z"/>
<path d="M2227 1303 c-24 -23 9 -67 61 -83 25 -7 36 -5 54 9 l22 18 -31 32
c-23 23 -41 31 -66 31 -18 0 -37 -3 -40 -7z"/>
<path d="M1906 1196 c-9 -14 -16 -35 -16 -46 0 -27 27 -80 41 -80 44 0 78 72
56 119 -17 37 -59 40 -81 7z m44 -33 c0 -7 5 -13 10 -13 6 0 10 -5 10 -12 0
-6 -7 -4 -18 5 -21 19 -42 23 -24 5 7 -7 12 -17 12 -22 0 -6 -7 -3 -15 7 -7
11 -11 25 -9 31 6 17 34 16 34 -1z"/>
<path d="M2510 1124 c-62 -53 -17 -112 49 -64 35 24 47 55 31 75 -18 22 -45
18 -80 -11z m36 -39 c-7 -18 -28 -16 -32 3 -1 7 0 8 3 2 9 -19 25 -10 20 11
-4 16 -3 19 5 11 6 -6 8 -18 4 -27z"/>
<path d="M2288 1085 c-67 -45 -62 -108 5 -86 40 14 70 52 65 84 -4 31 -27 31
-70 2z"/>
<path d="M2398 914 c-30 -16 -63 -68 -53 -84 13 -21 56 -9 93 24 31 29 35 38
26 53 -15 24 -33 26 -66 7z m19 -39 c0 -6 -10 -11 -21 -12 -12 -1 -15 1 -8 4
6 3 10 8 8 12 -3 4 1 8 8 8 7 0 13 -5 13 -12z"/>
<path d="M2144 860 c-17 -11 -37 -31 -44 -46 -13 -23 -13 -27 5 -40 23 -17 52
-10 88 24 35 33 38 82 5 82 -13 0 -37 -9 -54 -20z"/>
<path d="M1701 674 c-7 -31 -19 -58 -28 -61 -8 -3 -41 -1 -72 4 -65 12 -74 9
-41 -14 14 -10 37 -29 53 -43 l28 -25 -35 -47 c-43 -56 -44 -63 -8 -44 16 8
42 16 58 18 28 3 30 0 44 -54 8 -32 17 -58 20 -58 4 0 12 25 19 55 7 30 16 57
21 60 8 5 50 -7 104 -30 13 -6 5 10 -24 49 -26 35 -39 60 -33 64 49 32 83 58
83 65 0 7 -72 2 -110 -9 -11 -3 -21 11 -33 45 -9 27 -17 56 -17 65 0 36 -18
12 -29 -40z m94 -100 c19 5 19 4 2 -9 -17 -12 -17 -15 -2 -47 l16 -33 -21 25
-21 25 6 -24 c5 -15 3 -21 -3 -17 -6 3 -17 -2 -24 -12 -10 -15 -18 -17 -35
-11 -13 5 -23 13 -23 19 0 6 -5 8 -12 4 -8 -5 -9 -2 -5 10 4 10 3 15 -3 11 -6
-3 -15 6 -20 20 -14 36 -13 42 5 19 12 -16 14 -16 15 -3 0 9 11 28 25 43 l26
28 26 -27 c18 -17 34 -25 48 -21z"/>
<path d="M1418 686 c-23 -17 -23 -29 1 -50 18 -17 20 -17 40 3 l21 21 -20 20
c-23 23 -20 23 -42 6z"/>
</g>
</svg>
