<?xml version="1.0" standalone="no"?>
<!DOCTYPE svg PUBLIC "-//W3C//DTD SVG 20010904//EN"
 "http://www.w3.org/TR/2001/REC-SVG-20010904/DTD/svg10.dtd">
<svg version="1.0" xmlns="http://www.w3.org/2000/svg"
 width="328.000000pt" height="310.000000pt" viewBox="0 0 328.000000 310.000000"
 preserveAspectRatio="xMidYMid meet">
<g transform="translate(0.000000,310.000000) scale(0.100000,-0.100000)"
fill="#ffffff" stroke="none">
<path d="M1640 2983 c0 -5 -65 -75 -145 -158 -90 -93 -142 -154 -138 -161 10
-14 161 -194 179 -214 12 -12 14 3 13 104 0 65 2 121 5 124 3 3 24 -9 46 -27
22 -18 47 -31 56 -29 16 3 -63 67 -99 81 -15 6 -17 14 -12 54 11 84 15 94 62
144 l47 50 76 -76 77 -77 -47 -111 c-27 -62 -113 -242 -193 -402 -79 -159
-159 -324 -177 -365 -35 -79 -109 -237 -205 -433 -31 -65 -56 -120 -54 -122 2
-2 42 3 89 10 47 7 154 23 237 36 84 12 156 20 159 16 8 -8 -2 -82 -61 -447
-24 -146 -53 -331 -66 -413 -13 -81 -27 -153 -31 -160 -14 -21 -74 53 -82 102
-7 49 7 79 49 107 14 9 25 25 25 37 0 17 -8 13 -49 -24 -48 -43 -49 -46 -50
-102 -1 -57 0 -59 57 -121 60 -67 72 -76 72 -51 0 28 96 241 287 635 31 63
127 264 215 445 87 182 163 338 169 349 6 10 7 22 2 26 -4 4 -73 -3 -153 -16
-200 -33 -334 -52 -338 -49 -2 2 40 293 74 510 24 155 84 488 90 505 4 10 18
1 51 -34 43 -46 45 -50 41 -97 -4 -41 -12 -57 -52 -99 -54 -58 -53 -91 1 -38
50 48 71 87 79 145 l6 52 -148 151 c-136 139 -164 163 -164 143z m-105 -191
c-9 -30 -82 -92 -108 -92 -18 0 -12 10 41 61 62 61 80 69 67 31z m-9 -136 c-4
-25 -10 -46 -14 -45 -9 1 -66 69 -61 72 2 1 18 10 34 19 39 22 49 10 41 -46z
m-73 -12 c40 -44 77 -111 77 -138 0 -19 -1 -19 -17 4 -9 14 -41 54 -70 89 -29
36 -53 69 -53 73 0 20 33 5 63 -28z m289 -176 c-12 -62 -31 -174 -42 -248 -12
-74 -35 -218 -51 -319 -16 -101 -27 -186 -24 -189 3 -3 110 10 238 30 128 19
235 34 239 31 4 -2 -38 -97 -94 -211 -286 -591 -458 -953 -464 -976 -3 -14
-13 -31 -22 -38 -15 -11 -15 -11 -6 2 6 8 11 24 12 35 1 35 70 472 106 680 19
109 33 201 31 203 -2 3 -39 -1 -82 -7 -43 -7 -137 -21 -209 -31 -73 -11 -144
-22 -158 -26 -14 -3 -26 -2 -26 3 0 6 46 106 101 224 56 118 116 248 134 289
48 112 328 670 333 665 2 -2 -5 -55 -16 -117z"/>
<path d="M1140 2867 c0 -53 4 -67 23 -84 63 -57 97 -48 97 27 0 48 -1 50 -52
85 -29 19 -56 35 -60 35 -5 0 -8 -28 -8 -63z m96 -42 c3 -14 3 -33 -1 -42 -6
-15 -9 -13 -21 12 -17 40 -17 55 1 55 8 0 17 -11 21 -25z m-46 -21 c0 -19 -16
-18 -24 2 -11 27 -7 37 9 24 8 -7 15 -19 15 -26z"/>
<path d="M1122 2673 c1 -10 -2 -58 -6 -108 -7 -89 -7 -91 28 -163 24 -50 62
-102 118 -163 46 -49 85 -89 88 -89 9 0 30 179 30 253 0 67 -1 68 -47 118 -40
43 -195 169 -208 169 -2 0 -3 -8 -3 -17z m58 -103 c11 -21 20 -41 20 -43 0 -2
-13 -13 -30 -25 l-30 -23 0 66 c0 36 4 65 10 65 5 0 19 -18 30 -40z m76 -15
c18 -16 48 -43 68 -58 37 -30 48 -67 20 -67 -21 0 -84 63 -84 85 0 11 -5 15
-15 11 -15 -5 -26 9 -45 60 -10 25 -9 26 7 13 10 -8 32 -27 49 -44z m12 -102
c6 -27 16 -77 23 -113 6 -36 17 -80 24 -97 8 -18 10 -33 4 -33 -5 0 -9 5 -9
10 0 6 -18 30 -40 54 -30 33 -40 51 -40 77 0 24 -9 46 -30 69 -16 19 -29 40
-30 47 0 16 29 32 61 33 22 0 27 -6 37 -47z m-67 -76 c32 -62 16 -68 -19 -7
-18 30 -32 59 -32 64 0 17 32 -18 51 -57z m152 -33 c-4 -110 -14 -118 -33 -24
-10 47 -16 88 -13 92 2 4 14 3 26 -1 20 -8 22 -15 20 -67z"/>
<path d="M2400 2525 c-58 -30 -110 -54 -115 -54 -13 -1 -18 -10 -92 -151 -132
-251 -183 -353 -179 -358 5 -5 308 160 392 214 30 19 74 43 98 54 l43 18 7
104 c4 56 9 117 12 134 4 23 -1 38 -21 62 -15 18 -30 32 -33 31 -4 0 -54 -25
-112 -54z m94 3 c-14 -24 -89 -113 -101 -121 -7 -4 -13 -14 -13 -22 0 -15 -68
-105 -114 -150 -17 -17 -64 -65 -105 -108 -40 -42 -75 -77 -78 -77 -4 0 73
151 168 328 34 63 34 63 69 57 56 -11 69 -11 67 0 -1 6 -13 10 -27 10 -42 1
-28 18 45 57 73 39 102 47 89 26z m41 -133 c-6 -100 -10 -115 -24 -112 -9 2
-14 10 -12 18 1 8 5 41 8 74 3 44 2 56 -6 45 -6 -8 -11 -26 -11 -40 0 -14 -5
-32 -10 -40 -9 -13 -13 -11 -30 10 -11 14 -20 32 -20 40 0 29 90 144 103 131
5 -5 6 -61 2 -126z m-70 -105 c-7 -11 -144 -55 -150 -48 -3 2 17 32 43 67 l47
62 33 -36 c18 -20 30 -40 27 -45z m41 -32 c4 -7 4 -10 0 -6 -5 4 -37 -11 -72
-33 -118 -72 -297 -169 -303 -164 -3 3 28 39 68 79 71 72 76 75 165 99 50 14
100 28 111 30 11 3 21 5 22 6 1 0 5 -5 9 -11z"/>
<path d="M745 2416 l-29 -83 46 -49 c25 -27 57 -63 71 -79 16 -19 46 -37 79
-48 29 -10 124 -52 210 -95 142 -70 155 -75 143 -51 -19 35 -92 144 -131 196
-17 23 -55 82 -83 131 -28 50 -59 93 -69 97 -43 18 -187 65 -197 65 -7 0 -25
-38 -40 -84z m68 0 c15 -43 15 -44 -6 -50 -35 -9 -47 -7 -47 8 0 15 28 86 34
86 2 0 11 -20 19 -44z m70 28 c26 -9 47 -19 47 -22 0 -4 -18 -15 -40 -24 l-40
-17 -15 29 c-28 54 -22 58 48 34z m143 -105 c60 -95 65 -111 23 -73 -19 16
-68 43 -107 60 -40 16 -72 32 -72 37 0 4 12 12 28 17 15 6 34 14 42 19 29 19
41 10 86 -60z m-96 -32 c90 -39 212 -138 244 -196 15 -29 22 -51 16 -51 -6 0
-59 24 -118 53 -59 29 -129 62 -157 72 -38 14 -61 31 -93 72 -56 70 -61 83
-31 83 13 0 31 5 39 10 10 6 20 4 30 -5 8 -7 40 -24 70 -38z"/>
<path d="M1963 2488 c-8 -14 -18 -241 -12 -273 3 -15 15 -4 56 47 28 36 61 84
73 107 24 49 22 55 -44 103 -43 31 -61 35 -73 16z m60 -102 c-21 -22 -40 -37
-42 -33 -2 5 0 33 4 62 l6 54 35 -21 35 -20 -38 -42z m2 -61 c-21 -30 -40 -55
-42 -55 -1 0 -3 8 -3 18 0 20 69 106 78 98 2 -3 -12 -30 -33 -61z"/>
<path d="M2787 2464 c-36 -20 -95 -133 -75 -146 17 -12 115 -3 134 13 9 7 24
29 34 50 l19 36 -39 32 c-21 17 -40 31 -42 31 -2 -1 -15 -8 -31 -16z m52 -32
c8 -14 6 -18 -10 -19 -18 -2 -26 17 -12 30 9 10 11 9 22 -11z m-46 -11 c-7
-27 -43 -60 -43 -40 0 18 28 59 40 59 4 0 6 -9 3 -19z m77 -30 c0 -5 -6 -14
-14 -20 -12 -10 -13 -8 -9 8 5 21 23 30 23 12z m-44 -47 c0 -1 -23 -4 -51 -7
l-50 -6 45 24 c40 21 46 21 51 7 4 -10 6 -18 5 -18z"/>
<path d="M2429 2089 c-87 -34 -101 -46 -139 -123 -17 -33 -40 -71 -52 -83 -12
-13 -19 -25 -17 -27 3 -3 52 -20 109 -39 l105 -35 27 33 c28 34 169 155 226
194 l33 23 -15 -37 c-18 -43 -20 -55 -7 -55 5 0 14 15 20 33 7 17 23 49 36 69
l25 37 -33 5 c-17 3 -81 11 -140 19 l-108 13 -70 -27z m71 -6 c0 -5 -5 -25
-11 -46 -9 -34 -18 -41 -100 -82 -49 -25 -89 -40 -89 -35 0 19 38 85 62 107
12 12 46 31 73 42 56 22 65 24 65 14z m155 -17 l60 -13 -32 -16 c-18 -9 -59
-39 -92 -67 -33 -27 -62 -50 -64 -50 -3 0 -10 13 -17 29 -9 23 -9 42 0 86 l12
57 36 -6 c21 -4 64 -13 97 -20z m-164 -130 l16 -35 -43 -42 c-35 -34 -47 -40
-68 -35 -22 5 -24 9 -16 31 8 20 5 27 -12 39 -12 9 -20 17 -17 18 10 7 114 57
119 57 3 1 13 -14 21 -33z m-134 -61 c1 -5 -1 -16 -6 -23 -7 -11 -17 -11 -52
-2 l-43 12 24 14 c28 15 72 15 77 -1z"/>
<path d="M500 2033 c0 -5 25 -25 56 -47 31 -21 89 -65 130 -97 73 -59 74 -60
74 -106 l0 -47 -104 102 c-57 56 -108 102 -113 102 -6 0 -93 -84 -194 -187
l-183 -187 194 -188 c106 -103 198 -188 204 -188 6 0 59 50 118 111 82 85 108
118 108 138 l-1 26 -25 -30 c-139 -162 -171 -198 -185 -205 -12 -7 -25 0 -49
25 l-33 34 34 39 c19 22 73 82 122 134 48 53 87 99 87 103 0 4 -49 58 -109
120 -60 62 -117 125 -127 140 -17 26 -17 27 14 58 l32 32 114 -118 c62 -64
116 -117 120 -117 4 0 4 15 1 33 -3 17 -7 77 -9 132 -1 55 -7 102 -11 105 -5
3 -14 -14 -20 -38 l-10 -43 -40 41 c-21 22 -56 52 -77 67 -21 14 -38 29 -38
32 0 8 174 12 210 5 23 -4 25 -8 22 -46 -4 -33 4 -58 39 -130 24 -48 48 -88
54 -88 13 0 215 103 215 110 0 3 -12 12 -28 21 -15 9 -79 48 -143 88 l-116 71
-167 0 c-91 0 -166 -3 -166 -7z m422 -79 c40 -26 77 -50 82 -55 4 -4 -29 -5
-75 -2 -46 3 -87 11 -91 17 -15 21 -8 86 8 86 2 0 36 -21 76 -46z m126 -83
c28 -3 8 -23 -58 -56 -38 -19 -71 -35 -74 -35 -4 0 -56 89 -56 96 0 3 145 -1
188 -5z m-568 -51 c0 -6 52 -64 115 -129 63 -65 115 -122 115 -127 -1 -5 -32
-40 -70 -79 -38 -38 -89 -96 -112 -127 -24 -32 -45 -57 -48 -58 -3 0 -61 56
-129 124 -108 108 -123 127 -117 149 6 27 193 223 203 213 8 -8 -31 -56 -115
-146 -39 -41 -70 -75 -68 -77 1 -1 48 -6 104 -9 l101 -7 7 -44 c3 -24 10 -45
14 -48 7 -4 58 58 92 111 4 6 -21 38 -58 75 l-66 64 4 -63 3 -62 -80 0 -79 0
39 43 c22 23 60 63 84 89 33 35 42 52 38 68 -3 12 -3 28 0 36 6 16 23 19 23 4z
m45 -280 c-26 -27 -30 -29 -37 -13 -3 10 -7 40 -7 67 l-1 49 37 -36 37 -37
-29 -30z"/>
<path d="M2669 1882 c-116 -121 -159 -171 -159 -182 0 -18 19 -1 127 111 l102
106 32 -33 c17 -18 30 -37 28 -42 -3 -7 -197 -216 -248 -267 -3 -3 31 -43 75
-88 44 -45 104 -109 132 -142 l52 -59 -32 -33 c-18 -18 -37 -33 -43 -33 -11 0
-144 142 -185 198 -13 17 -27 32 -31 32 -4 0 -5 -46 -2 -102 3 -57 1 -119 -5
-138 l-9 -35 -8 30 c-8 36 -64 177 -74 187 -3 4 -59 -19 -124 -50 -116 -57
-118 -58 -91 -71 15 -6 68 -39 118 -71 137 -88 142 -90 315 -90 82 0 152 4
155 8 5 9 -85 70 -172 117 -29 16 -57 36 -62 44 -7 14 -14 71 -11 94 1 4 23
-19 50 -51 28 -33 71 -77 96 -97 l46 -38 62 59 c34 32 122 118 195 190 l134
131 -192 191 c-106 106 -196 192 -200 192 -3 0 -35 -30 -71 -68z m295 -188
c72 -74 128 -135 125 -136 -3 -2 -61 -59 -131 -127 l-126 -124 -68 73 c-38 41
-93 98 -121 128 -29 29 -53 58 -53 64 0 11 231 258 240 256 3 0 63 -61 134
-134z m-528 -398 c6 -25 5 -26 -39 -26 -59 0 -137 11 -137 20 0 3 27 19 60 35
34 16 66 36 73 43 10 12 14 9 24 -15 6 -17 15 -42 19 -57z m22 -52 c13 -4 17
-94 4 -94 -5 0 -40 20 -78 45 -38 24 -75 45 -81 45 -7 0 -13 4 -13 10 0 9 135
5 168 -6z m171 -37 c106 -60 104 -67 -19 -67 -83 0 -101 3 -97 14 3 8 11 32
18 55 7 23 15 41 18 41 3 0 39 -19 80 -43z"/>
<path d="M2793 1655 c-40 -17 -55 -45 -51 -97 4 -49 39 -81 89 -81 39 0 89 50
89 89 0 40 -27 81 -61 93 -18 6 -32 11 -33 11 -1 -1 -15 -7 -33 -15z m86 -41
c12 -15 21 -34 21 -44 0 -30 -39 -70 -69 -70 -35 0 -71 33 -71 66 0 32 42 74
74 74 15 0 33 -11 45 -26z"/>
<path d="M2313 1630 c-35 -33 -63 -62 -63 -64 0 -6 141 -108 145 -104 1 2 19
28 38 60 l36 56 -36 56 c-21 31 -42 56 -48 56 -5 -1 -38 -27 -72 -60z m57 -50
c0 -80 -7 -85 -59 -41 l-34 28 44 41 c24 23 45 42 47 42 1 0 2 -31 2 -70z m70
3 c0 -7 -9 -27 -20 -45 l-20 -33 0 52 c0 28 -3 60 -7 70 -5 14 -1 13 20 -6 15
-14 27 -30 27 -38z"/>
<path d="M857 1614 l-28 -56 38 -41 c20 -23 41 -44 45 -45 11 -5 148 76 148
87 0 12 -154 111 -172 111 -2 0 -16 -25 -31 -56z m99 -5 c40 -24 44 -39 10
-39 -27 0 -56 24 -56 46 0 19 6 18 46 -7z m-56 -52 c0 -19 -4 -27 -12 -25 -15
5 -22 42 -13 66 5 14 7 14 15 2 6 -8 10 -28 10 -43z m110 -4 c0 -8 -73 -53
-84 -53 -12 0 -5 49 7 53 19 8 77 8 77 0z"/>
<path d="M867 1338 c-17 -41 -115 -121 -260 -213 l-31 -19 33 47 c19 26 32 49
29 52 -5 6 -118 -114 -118 -125 0 -4 124 -27 257 -47 24 -4 54 5 116 35 l84
41 61 100 60 101 -71 20 c-40 12 -81 24 -92 26 -11 3 -28 8 -37 10 -12 4 -21
-5 -31 -28z m111 -19 c80 -23 36 -57 -52 -40 -26 5 -49 11 -51 13 -10 10 28
48 43 44 10 -3 36 -10 60 -17z m-10 -68 c9 -5 -11 -23 -66 -58 l-80 -51 -6 30
c-9 47 -8 56 15 79 18 18 28 20 72 15 28 -4 57 -11 65 -15z m48 -28 c-36 -71
-76 -111 -132 -137 -57 -26 -84 -32 -84 -18 0 21 39 56 118 108 48 31 89 60
90 65 2 5 8 9 13 9 5 0 3 -12 -5 -27z m-216 -66 c0 -30 -23 -98 -33 -97 -29 3
-160 30 -164 34 -10 10 64 36 102 36 19 0 35 5 35 10 0 6 -17 10 -37 10 l-38
0 60 34 c67 37 75 34 75 -27z"/>
<path d="M1125 1081 c-156 -82 -307 -165 -344 -191 -19 -13 -24 -34 -38 -148
l-17 -132 25 -25 24 -25 126 61 126 61 58 107 c33 58 78 136 102 173 40 63
103 181 103 193 0 11 -20 2 -165 -74z m67 -58 c-21 -32 -56 -89 -77 -128 -85
-157 -107 -195 -116 -195 -19 0 -89 33 -89 42 0 26 312 368 318 349 2 -6 -14
-36 -36 -68z m-29 45 c-3 -7 -36 -41 -73 -76 -59 -55 -79 -67 -166 -97 -54
-19 -105 -33 -113 -30 -20 8 -9 16 84 66 44 23 123 66 175 96 52 29 96 53 97
53 1 0 0 -6 -4 -12z m-163 -173 c0 -8 -101 -129 -110 -133 -7 -3 -64 78 -58
83 4 3 151 53 161 54 4 1 7 -1 7 -4z m-169 -100 l41 -55 -42 -65 c-40 -61 -61
-77 -74 -56 -6 8 11 187 20 219 5 19 11 15 55 -43z m106 -98 l33 -12 -76 -39
c-41 -21 -77 -36 -80 -33 -9 9 60 96 76 96 8 0 30 -6 47 -12z"/>
<path d="M2035 1149 c5 -8 51 -81 103 -164 52 -82 110 -175 128 -206 32 -55
35 -57 129 -93 52 -20 103 -36 113 -36 22 0 76 132 68 165 -7 29 -115 156
-146 172 -39 20 -363 164 -384 170 -15 5 -17 3 -11 -8z m200 -104 c157 -65
199 -90 253 -153 29 -33 52 -64 52 -70 0 -10 -33 -22 -63 -22 -11 0 -33 10
-50 23 -16 12 -78 47 -136 77 -98 51 -109 60 -148 118 -49 73 -57 101 -20 78
12 -8 63 -31 112 -51z m0 -136 c4 -5 33 -23 66 -39 84 -40 129 -70 129 -84 0
-10 -88 -46 -113 -46 -3 0 -20 28 -37 63 -18 34 -38 69 -44 77 -21 25 -28 40
-17 40 5 0 13 -5 16 -11z m315 -122 c0 -15 -34 -97 -40 -97 -6 0 -22 46 -24
75 -1 5 10 12 24 16 31 9 40 10 40 6z m-77 -60 c5 -16 7 -31 4 -34 -8 -7 -107
27 -107 36 0 10 59 30 79 28 8 -1 19 -15 24 -30z"/>
<path d="M1936 1000 c-3 -17 -9 -94 -12 -170 l-7 -139 59 -68 c32 -37 72 -79
88 -93 40 -34 106 -73 113 -66 3 3 6 60 7 128 1 118 0 125 -28 176 -23 42
-107 145 -206 255 -4 5 -10 -6 -14 -23z m53 -153 c6 -43 11 -83 11 -88 0 -16
-15 -9 -34 18 -15 20 -19 40 -17 91 4 115 23 105 40 -21z m47 16 c14 -32 32
-70 40 -85 18 -34 18 -47 -3 -70 -23 -25 -30 -23 -42 15 -9 29 -31 161 -31
186 0 24 12 8 36 -46z m74 -59 c27 -43 31 -64 11 -64 -8 0 -51 84 -51 100 0
19 11 9 40 -36z m-100 -111 c0 -7 5 -13 10 -13 6 0 10 -19 10 -41 0 -36 -2
-40 -15 -29 -33 27 -75 102 -75 132 l0 32 35 -34 c19 -19 35 -40 35 -47z m151
-9 c8 -49 3 -63 -28 -70 -19 -5 -31 0 -50 19 -25 25 -25 25 -7 50 20 27 52 47
69 43 5 -1 13 -20 16 -42z m-73 -83 c27 -37 41 -88 21 -76 -36 21 -59 50 -59
77 0 36 11 36 38 -1z m78 -23 c-3 -13 -6 -31 -6 -40 0 -30 -17 -20 -24 14 -4
21 -2 34 6 40 22 14 31 9 24 -14z"/>
<path d="M1285 873 c-58 -82 -90 -146 -82 -164 8 -20 116 -74 127 -63 10 11
18 294 8 294 -3 0 -28 -30 -53 -67z m26 -44 c-11 -26 -35 -55 -65 -79 -18 -14
-19 -14 -6 10 17 32 72 101 77 96 2 -2 -1 -14 -6 -27z m2 -101 c-3 -29 -7 -54
-8 -55 -1 -2 -17 6 -37 16 l-36 18 41 36 c23 21 43 37 44 37 1 0 -1 -24 -4
-52z"/>
<path d="M530 839 c-66 -18 -108 -41 -114 -63 -13 -49 -7 -75 24 -91 16 -8 36
-15 44 -15 32 0 100 95 107 150 5 29 -9 33 -61 19z m-8 -50 c-23 -17 -46 -28
-51 -25 -5 4 -12 0 -14 -6 -4 -10 -8 -10 -15 1 -12 16 19 37 73 51 50 13 51
11 7 -21z m22 -38 c-20 -33 -30 -38 -36 -19 -4 11 43 60 50 53 2 -2 -4 -17
-14 -34z m-54 -42 c0 -13 -38 -11 -46 2 -9 16 18 30 33 17 7 -6 13 -14 13 -19z"/>
<path d="M1747 600 c6 -132 7 -130 -54 -105 -44 18 -48 19 -34 2 6 -8 29 -22
50 -32 48 -21 54 -33 41 -92 -14 -61 -6 -65 20 -11 12 23 41 62 63 85 l41 43
-35 37 c-47 50 -69 83 -69 106 0 11 27 -13 78 -68 42 -48 78 -90 80 -95 2 -4
-25 -34 -60 -66 -35 -32 -98 -94 -141 -137 l-79 -79 -65 71 c-35 39 -71 71
-80 71 -22 0 -16 -9 68 -99 l77 -82 159 159 160 160 -36 43 c-19 24 -66 77
-103 117 -37 39 -68 77 -68 82 0 6 -4 10 -9 10 -5 0 -7 -51 -4 -120z m67 -76
l29 -35 -28 -29 c-16 -17 -32 -30 -37 -30 -4 0 -8 29 -8 65 0 36 3 65 8 64 4
0 20 -16 36 -35z"/>
<path d="M2065 377 c-22 -32 -19 -80 8 -103 41 -36 85 -63 91 -57 3 4 6 37 6
74 0 73 -1 75 -64 99 -21 8 -28 6 -41 -13z m63 -29 c7 -7 12 -26 12 -42 l-1
-31 -19 35 c-11 19 -19 38 -20 43 0 11 15 8 28 -5z m-32 -43 c7 -27 6 -29 -9
-16 -10 7 -17 25 -17 39 0 33 16 18 26 -23z"/>
</g>
</svg>
